<svg width="201" height="40" viewBox="0 0 201 40" fill="none" xmlns="http://www.w3.org/2000/svg">
<path fill-rule="evenodd" clip-rule="evenodd" d="M40.4 0H0V40H40.4V0ZM16.1811 8.22794C17.1348 7.23124 18.4605 6.66667 19.8472 6.66667H29.8732C30.2481 6.66667 30.4358 7.11548 30.1707 7.37796L24.7271 12.7677C23.8194 13.6664 22.6 14.1892 21.317 14.2296L10.1 14.5833L16.1811 8.22794ZM15.6729 27.2323C16.5806 26.3335 17.7999 25.8108 19.083 25.7704L30.3 25.4167L24.2189 31.7721C23.2652 32.7688 21.9395 33.3333 20.5528 33.3333H10.5268C10.1519 33.3333 9.96412 32.8845 10.2292 32.622L15.6729 27.2323ZM17.17 16.25H23.23V23.75H17.17V16.25ZM16.16 15.25L10.1 14.9167V16.3986C10.1 17.1003 10.3979 17.7697 10.9208 18.2433L16.8333 23.75L16.16 15.25ZM23.5667 16.25L29.4791 21.7567C30.0021 22.2303 30.3 22.8997 30.3 23.6014V25.0833L24.24 24.75L23.5667 16.25Z" fill="#A51535"/>
<path d="M16.1807 8.2279C17.1344 7.2312 18.4601 6.66663 19.8468 6.66663H29.8728C30.2477 6.66663 30.4355 7.11543 30.1704 7.37792L24.7267 12.7677C23.819 13.6664 22.5996 14.1891 21.3166 14.2296L10.0996 14.5833L16.1807 8.2279Z" fill="white"/>
<path d="M15.6725 27.2322C16.5802 26.3335 17.7996 25.8108 19.0826 25.7703L30.2996 25.4166L24.2185 31.772C23.2648 32.7687 21.9391 33.3333 20.5524 33.3333H10.5264C10.1515 33.3333 9.96374 32.8845 10.2289 32.622L15.6725 27.2322Z" fill="white"/>
<path d="M23.2296 16.25H17.1696V23.75H23.2296V16.25Z" fill="white"/>
<path d="M16.1596 15.25L10.0996 14.9166V16.3986C10.0996 17.1003 10.3975 17.7697 10.9205 18.2433L16.8329 23.75L16.1596 15.25Z" fill="white"/>
<path d="M29.4787 21.7566L23.5663 16.25L24.2396 24.75L30.2996 25.0833V23.6014C30.2996 22.8996 30.0017 22.2302 29.4787 21.7566Z" fill="white"/>
<path d="M60.0977 13.123C59.5156 13.123 58.9746 13.0508 58.4746 12.9062C57.9746 12.7617 57.4883 12.5215 57.0156 12.1855V10.2227H58.1582L58.3457 11.4941C58.5527 11.6426 58.8066 11.7617 59.1074 11.8516C59.4121 11.9414 59.7422 11.9863 60.0977 11.9863C60.4453 11.9863 60.7363 11.9375 60.9707 11.8398C61.209 11.7383 61.3906 11.5977 61.5156 11.418C61.6406 11.2383 61.7031 11.0254 61.7031 10.7793C61.7031 10.5527 61.6484 10.3516 61.5391 10.1758C61.4297 10 61.248 9.84375 60.9941 9.70703C60.7402 9.56641 60.3965 9.4375 59.9629 9.32031C59.3262 9.14844 58.793 8.94531 58.3633 8.71094C57.9375 8.47656 57.6152 8.19531 57.3965 7.86719C57.1816 7.53906 57.0742 7.15234 57.0742 6.70703C57.0742 6.25 57.1973 5.8457 57.4434 5.49414C57.6934 5.14258 58.0391 4.86523 58.4805 4.66211C58.9219 4.45898 59.4316 4.35547 60.0098 4.35156C60.6426 4.34375 61.2012 4.42578 61.6855 4.59766C62.1738 4.76953 62.5859 4.99414 62.9219 5.27148V7.10547H61.8027L61.5918 5.91016C61.4316 5.79688 61.2227 5.70117 60.9648 5.62305C60.7109 5.54102 60.4102 5.5 60.0625 5.5C59.7656 5.5 59.5039 5.54883 59.2773 5.64648C59.0508 5.74414 58.873 5.88281 58.7441 6.0625C58.6152 6.23828 58.5508 6.44922 58.5508 6.69531C58.5508 6.91016 58.6074 7.09766 58.7207 7.25781C58.834 7.41797 59.0234 7.56445 59.2891 7.69727C59.5547 7.82617 59.9141 7.95703 60.3672 8.08984C61.293 8.33594 61.9941 8.67578 62.4707 9.10938C62.9473 9.54297 63.1855 10.0957 63.1855 10.7676C63.1855 11.2402 63.0566 11.6543 62.7988 12.0098C62.5449 12.3613 62.1855 12.6348 61.7207 12.8301C61.2598 13.0254 60.7188 13.123 60.0977 13.123ZM66.0977 13.123C65.4531 13.123 64.9512 12.957 64.5918 12.625C64.2324 12.293 64.0527 11.8359 64.0527 11.2539C64.0527 10.8555 64.1621 10.5059 64.3809 10.2051C64.5996 9.9043 64.9199 9.66992 65.3418 9.50195C65.7637 9.33008 66.2754 9.24414 66.877 9.24414H67.8438V8.71094C67.8438 8.375 67.7422 8.10742 67.5391 7.9082C67.3398 7.70898 67.0488 7.60938 66.666 7.60938C66.4473 7.60938 66.2539 7.63672 66.0859 7.69141C65.918 7.74219 65.7676 7.81641 65.6348 7.91406L65.5 8.76953H64.416L64.4043 7.20508C64.7168 7.00195 65.0645 6.8418 65.4473 6.72461C65.8301 6.60352 66.2559 6.54297 66.7246 6.54297C67.5293 6.54297 68.1621 6.73242 68.623 7.11133C69.0879 7.48633 69.3203 8.02539 69.3203 8.72852V11.5234C69.3203 11.6094 69.3203 11.6934 69.3203 11.7754C69.3242 11.8574 69.3301 11.9375 69.3379 12.0156L69.9824 12.0977V13H68.0547C68.0156 12.8633 67.9785 12.7305 67.9434 12.6016C67.9121 12.4727 67.8887 12.3438 67.873 12.2148C67.6621 12.4805 67.4062 12.6992 67.1055 12.8711C66.8086 13.0391 66.4727 13.123 66.0977 13.123ZM66.4316 11.9805C66.7285 11.9805 67.0059 11.9121 67.2637 11.7754C67.5215 11.6348 67.7148 11.459 67.8438 11.248V10.1875H66.8594C66.418 10.1875 66.084 10.291 65.8574 10.498C65.6348 10.7012 65.5234 10.9395 65.5234 11.2129C65.5234 11.459 65.6016 11.6484 65.7578 11.7812C65.9141 11.9141 66.1387 11.9805 66.4316 11.9805ZM73.498 15.5605C73.1855 15.5605 72.8379 15.5176 72.4551 15.4316C72.0762 15.3496 71.7422 15.2344 71.4531 15.0859L71.7578 14.0078C72.0078 14.1211 72.2832 14.2129 72.584 14.2832C72.8848 14.3535 73.1699 14.3887 73.4395 14.3887C73.9238 14.3887 74.2773 14.2539 74.5 13.9844C74.7266 13.7188 74.8398 13.3418 74.8398 12.8535V12.3555C74.6445 12.6055 74.4121 12.7969 74.1426 12.9297C73.873 13.0586 73.5645 13.123 73.2168 13.123C72.7012 13.123 72.2559 12.9941 71.8809 12.7363C71.5098 12.4785 71.2246 12.1172 71.0254 11.6523C70.8301 11.1875 70.7324 10.6484 70.7324 10.0352V9.91211C70.7324 9.23633 70.8301 8.64648 71.0254 8.14258C71.2246 7.63867 71.5078 7.24609 71.875 6.96484C72.2461 6.68359 72.6875 6.54297 73.1992 6.54297C73.5859 6.54297 73.9219 6.62305 74.207 6.7832C74.4922 6.93945 74.7344 7.16406 74.9336 7.45703L75.0449 6.66016H76.3164V12.8594C76.3164 13.4102 76.2051 13.8867 75.9824 14.2891C75.7598 14.6953 75.4375 15.0078 75.0156 15.2266C74.5938 15.4492 74.0879 15.5605 73.498 15.5605ZM73.6152 11.957C73.9004 11.957 74.1426 11.8965 74.3418 11.7754C74.5449 11.6543 74.7109 11.4785 74.8398 11.248V8.42383C74.7109 8.20117 74.5449 8.02734 74.3418 7.90234C74.1387 7.77344 73.8984 7.70898 73.6211 7.70898C73.2969 7.70898 73.0293 7.80273 72.8184 7.99023C72.6113 8.17383 72.457 8.43164 72.3555 8.76367C72.2578 9.0918 72.209 9.47461 72.209 9.91211V10.0352C72.209 10.6211 72.3203 11.0879 72.543 11.4355C72.7695 11.7832 73.127 11.957 73.6152 11.957ZM76.1172 7.77344L75.4961 6.66016H77.0781V7.56836L76.1172 7.77344ZM79.7266 13.123C79.082 13.123 78.5801 12.957 78.2207 12.625C77.8613 12.293 77.6816 11.8359 77.6816 11.2539C77.6816 10.8555 77.791 10.5059 78.0098 10.2051C78.2285 9.9043 78.5488 9.66992 78.9707 9.50195C79.3926 9.33008 79.9043 9.24414 80.5059 9.24414H81.4727V8.71094C81.4727 8.375 81.3711 8.10742 81.168 7.9082C80.9688 7.70898 80.6777 7.60938 80.2949 7.60938C80.0762 7.60938 79.8828 7.63672 79.7148 7.69141C79.5469 7.74219 79.3965 7.81641 79.2637 7.91406L79.1289 8.76953H78.0449L78.0332 7.20508C78.3457 7.00195 78.6934 6.8418 79.0762 6.72461C79.459 6.60352 79.8848 6.54297 80.3535 6.54297C81.1582 6.54297 81.791 6.73242 82.252 7.11133C82.7168 7.48633 82.9492 8.02539 82.9492 8.72852V11.5234C82.9492 11.6094 82.9492 11.6934 82.9492 11.7754C82.9531 11.8574 82.959 11.9375 82.9668 12.0156L83.6113 12.0977V13H81.6836C81.6445 12.8633 81.6074 12.7305 81.5723 12.6016C81.541 12.4727 81.5176 12.3438 81.502 12.2148C81.291 12.4805 81.0352 12.6992 80.7344 12.8711C80.4375 13.0391 80.1016 13.123 79.7266 13.123ZM80.0605 11.9805C80.3574 11.9805 80.6348 11.9121 80.8926 11.7754C81.1504 11.6348 81.3438 11.459 81.4727 11.248V10.1875H80.4883C80.0469 10.1875 79.7129 10.291 79.4863 10.498C79.2637 10.7012 79.1523 10.9395 79.1523 11.2129C79.1523 11.459 79.2305 11.6484 79.3867 11.7812C79.543 11.9141 79.7676 11.9805 80.0605 11.9805ZM84.4023 13V12.0977L85.2812 11.9219V7.74414L84.3555 7.56836V6.66016H86.6406L86.7168 7.45703L86.7285 7.58594C86.8965 7.25 87.1016 6.99219 87.3438 6.8125C87.5898 6.63281 87.877 6.54297 88.2051 6.54297C88.3145 6.54297 88.4297 6.55273 88.5508 6.57227C88.6758 6.5918 88.7773 6.61328 88.8555 6.63672L88.6855 8.00195L87.8594 7.95508C87.5898 7.93945 87.3672 7.99219 87.1914 8.11328C87.0195 8.23438 86.875 8.40234 86.7578 8.61719V11.9219L87.6367 12.0977V13H84.4023ZM91.4805 13.123C90.8359 13.123 90.334 12.957 89.9746 12.625C89.6152 12.293 89.4355 11.8359 89.4355 11.2539C89.4355 10.8555 89.5449 10.5059 89.7637 10.2051C89.9824 9.9043 90.3027 9.66992 90.7246 9.50195C91.1465 9.33008 91.6582 9.24414 92.2598 9.24414H93.2266V8.71094C93.2266 8.375 93.125 8.10742 92.9219 7.9082C92.7227 7.70898 92.4316 7.60938 92.0488 7.60938C91.8301 7.60938 91.6367 7.63672 91.4688 7.69141C91.3008 7.74219 91.1504 7.81641 91.0176 7.91406L90.8828 8.76953H89.7988L89.7871 7.20508C90.0996 7.00195 90.4473 6.8418 90.8301 6.72461C91.2129 6.60352 91.6387 6.54297 92.1074 6.54297C92.9121 6.54297 93.5449 6.73242 94.0059 7.11133C94.4707 7.48633 94.7031 8.02539 94.7031 8.72852V11.5234C94.7031 11.6094 94.7031 11.6934 94.7031 11.7754C94.707 11.8574 94.7129 11.9375 94.7207 12.0156L95.3652 12.0977V13H93.4375C93.3984 12.8633 93.3613 12.7305 93.3262 12.6016C93.2949 12.4727 93.2715 12.3438 93.2559 12.2148C93.0449 12.4805 92.7891 12.6992 92.4883 12.8711C92.1914 13.0391 91.8555 13.123 91.4805 13.123ZM91.8145 11.9805C92.1113 11.9805 92.3887 11.9121 92.6465 11.7754C92.9043 11.6348 93.0977 11.459 93.2266 11.248V10.1875H92.2422C91.8008 10.1875 91.4668 10.291 91.2402 10.498C91.0176 10.7012 90.9062 10.9395 90.9062 11.2129C90.9062 11.459 90.9844 11.6484 91.1406 11.7812C91.2969 11.9141 91.5215 11.9805 91.8145 11.9805ZM101.072 13V12.0977L102.004 11.9219V5.59961H100.287L100.158 6.68945H99.0508V4.46875H106.439V6.68945H105.326L105.197 5.59961H103.48V11.9219L104.412 12.0977V13H101.072ZM109.668 13.123C109.07 13.123 108.549 12.9902 108.104 12.7246C107.662 12.4551 107.318 12.084 107.072 11.6113C106.83 11.1387 106.709 10.5977 106.709 9.98828V9.74219C106.709 9.125 106.828 8.57617 107.066 8.0957C107.309 7.61133 107.641 7.23242 108.062 6.95898C108.484 6.68164 108.965 6.54297 109.504 6.54297C110.078 6.54297 110.559 6.6582 110.945 6.88867C111.336 7.11914 111.631 7.44727 111.83 7.87305C112.029 8.29492 112.129 8.80273 112.129 9.39648V10.2402H108.238L108.227 10.2695C108.242 10.6016 108.311 10.8965 108.432 11.1543C108.557 11.4121 108.732 11.6152 108.959 11.7637C109.189 11.9121 109.469 11.9863 109.797 11.9863C110.141 11.9863 110.453 11.9395 110.734 11.8457C111.016 11.752 111.275 11.6191 111.514 11.4473L111.977 12.373C111.727 12.584 111.408 12.7617 111.021 12.9062C110.635 13.0508 110.184 13.123 109.668 13.123ZM108.262 9.20312H110.717V9.05078C110.717 8.77344 110.674 8.53125 110.588 8.32422C110.506 8.11328 110.375 7.94922 110.195 7.83203C110.02 7.71484 109.795 7.65625 109.521 7.65625C109.283 7.65625 109.074 7.72266 108.895 7.85547C108.715 7.98828 108.57 8.16992 108.461 8.40039C108.355 8.62695 108.283 8.88477 108.244 9.17383L108.262 9.20312ZM115.99 13.123C115.396 13.123 114.881 12.9883 114.443 12.7188C114.01 12.4453 113.674 12.0703 113.436 11.5938C113.201 11.1133 113.084 10.5605 113.084 9.93555V9.73047C113.084 9.11719 113.201 8.57031 113.436 8.08984C113.67 7.60938 114.004 7.23242 114.438 6.95898C114.875 6.68164 115.391 6.54297 115.984 6.54297C116.527 6.54297 117 6.63086 117.402 6.80664C117.805 6.97852 118.135 7.19336 118.393 7.45117L118.398 9.14453H117.273L117.057 8.02539C116.947 7.91211 116.809 7.82227 116.641 7.75586C116.473 7.68555 116.289 7.65039 116.09 7.65039C115.766 7.65039 115.488 7.73828 115.258 7.91406C115.031 8.08984 114.857 8.33398 114.736 8.64648C114.619 8.95508 114.561 9.31641 114.561 9.73047V9.93555C114.561 10.3809 114.621 10.7559 114.742 11.0605C114.863 11.3652 115.031 11.5957 115.246 11.752C115.465 11.9082 115.715 11.9863 115.996 11.9863C116.336 11.9863 116.611 11.8945 116.822 11.7109C117.037 11.5273 117.178 11.2734 117.244 10.9492H118.521L118.539 10.9844C118.492 11.3984 118.369 11.7676 118.17 12.0918C117.975 12.4121 117.697 12.6641 117.338 12.8477C116.982 13.0312 116.533 13.123 115.99 13.123ZM119.248 13V12.0977L120.127 11.9219V4.94336L119.195 4.76758V3.85938H121.598V7.48047C121.805 7.18359 122.061 6.95312 122.365 6.78906C122.67 6.625 123.014 6.54297 123.396 6.54297C124.049 6.54297 124.561 6.75195 124.932 7.16992C125.307 7.58398 125.494 8.22461 125.494 9.0918V11.9219L126.373 12.0977V13H123.191V12.0977L124.023 11.9219V9.08008C124.023 8.5957 123.926 8.24609 123.73 8.03125C123.535 7.81641 123.248 7.70898 122.869 7.70898C122.6 7.70898 122.355 7.76953 122.137 7.89062C121.922 8.00781 121.742 8.17383 121.598 8.38867V11.9219L122.43 12.0977V13H119.248ZM126.988 13V12.0977L127.867 11.9219V7.74414L126.941 7.56836V6.66016H129.227L129.303 7.58008C129.514 7.25195 129.775 6.99805 130.088 6.81836C130.404 6.63477 130.762 6.54297 131.16 6.54297C131.812 6.54297 132.32 6.74414 132.684 7.14648C133.047 7.54492 133.229 8.16992 133.229 9.02148V11.9219L134.107 12.0977V13H130.926V12.0977L131.752 11.9219V9.0332C131.752 8.55273 131.656 8.21289 131.465 8.01367C131.273 7.81055 130.988 7.70898 130.609 7.70898C130.324 7.70898 130.074 7.77344 129.859 7.90234C129.648 8.02734 129.477 8.20312 129.344 8.42969V11.9219L130.146 12.0977V13H126.988ZM137.646 13.123C137.037 13.123 136.514 12.9863 136.076 12.7129C135.639 12.4395 135.303 12.0605 135.068 11.5762C134.834 11.0879 134.717 10.5273 134.717 9.89453V9.77148C134.717 9.14258 134.834 8.58594 135.068 8.10156C135.303 7.61719 135.639 7.23633 136.076 6.95898C136.514 6.68164 137.033 6.54297 137.635 6.54297C138.244 6.54297 138.768 6.68164 139.205 6.95898C139.643 7.23242 139.979 7.61133 140.213 8.0957C140.447 8.58008 140.564 9.13867 140.564 9.77148V9.89453C140.564 10.5273 140.447 11.0879 140.213 11.5762C139.979 12.0605 139.643 12.4395 139.205 12.7129C138.771 12.9863 138.252 13.123 137.646 13.123ZM137.646 11.9863C137.975 11.9863 138.244 11.8984 138.455 11.7227C138.67 11.543 138.83 11.2969 138.936 10.9844C139.041 10.668 139.094 10.3047 139.094 9.89453V9.77148C139.094 9.36523 139.041 9.00586 138.936 8.69336C138.83 8.38086 138.67 8.13477 138.455 7.95508C138.24 7.77539 137.967 7.68555 137.635 7.68555C137.311 7.68555 137.041 7.77539 136.826 7.95508C136.611 8.13477 136.451 8.38086 136.346 8.69336C136.244 9.00586 136.193 9.36523 136.193 9.77148V9.89453C136.193 10.3047 136.244 10.668 136.346 10.9844C136.451 11.2969 136.611 11.543 136.826 11.7227C137.045 11.8984 137.318 11.9863 137.646 11.9863ZM141.186 13V12.0977L142.07 11.9219V4.94336L141.133 4.76758V3.85938H143.541V11.9219L144.426 12.0977V13H141.186ZM147.936 13.123C147.326 13.123 146.803 12.9863 146.365 12.7129C145.928 12.4395 145.592 12.0605 145.357 11.5762C145.123 11.0879 145.006 10.5273 145.006 9.89453V9.77148C145.006 9.14258 145.123 8.58594 145.357 8.10156C145.592 7.61719 145.928 7.23633 146.365 6.95898C146.803 6.68164 147.322 6.54297 147.924 6.54297C148.533 6.54297 149.057 6.68164 149.494 6.95898C149.932 7.23242 150.268 7.61133 150.502 8.0957C150.736 8.58008 150.854 9.13867 150.854 9.77148V9.89453C150.854 10.5273 150.736 11.0879 150.502 11.5762C150.268 12.0605 149.932 12.4395 149.494 12.7129C149.061 12.9863 148.541 13.123 147.936 13.123ZM147.936 11.9863C148.264 11.9863 148.533 11.8984 148.744 11.7227C148.959 11.543 149.119 11.2969 149.225 10.9844C149.33 10.668 149.383 10.3047 149.383 9.89453V9.77148C149.383 9.36523 149.33 9.00586 149.225 8.69336C149.119 8.38086 148.959 8.13477 148.744 7.95508C148.529 7.77539 148.256 7.68555 147.924 7.68555C147.6 7.68555 147.33 7.77539 147.115 7.95508C146.9 8.13477 146.74 8.38086 146.635 8.69336C146.533 9.00586 146.482 9.36523 146.482 9.77148V9.89453C146.482 10.3047 146.533 10.668 146.635 10.9844C146.74 11.2969 146.9 11.543 147.115 11.7227C147.334 11.8984 147.607 11.9863 147.936 11.9863ZM154.592 15.5605C154.279 15.5605 153.932 15.5176 153.549 15.4316C153.17 15.3496 152.836 15.2344 152.547 15.0859L152.852 14.0078C153.102 14.1211 153.377 14.2129 153.678 14.2832C153.979 14.3535 154.264 14.3887 154.533 14.3887C155.018 14.3887 155.371 14.2539 155.594 13.9844C155.82 13.7188 155.934 13.3418 155.934 12.8535V12.3555C155.738 12.6055 155.506 12.7969 155.236 12.9297C154.967 13.0586 154.658 13.123 154.311 13.123C153.795 13.123 153.35 12.9941 152.975 12.7363C152.604 12.4785 152.318 12.1172 152.119 11.6523C151.924 11.1875 151.826 10.6484 151.826 10.0352V9.91211C151.826 9.23633 151.924 8.64648 152.119 8.14258C152.318 7.63867 152.602 7.24609 152.969 6.96484C153.34 6.68359 153.781 6.54297 154.293 6.54297C154.68 6.54297 155.016 6.62305 155.301 6.7832C155.586 6.93945 155.828 7.16406 156.027 7.45703L156.139 6.66016H157.41V12.8594C157.41 13.4102 157.299 13.8867 157.076 14.2891C156.854 14.6953 156.531 15.0078 156.109 15.2266C155.688 15.4492 155.182 15.5605 154.592 15.5605ZM154.709 11.957C154.994 11.957 155.236 11.8965 155.436 11.7754C155.639 11.6543 155.805 11.4785 155.934 11.248V8.42383C155.805 8.20117 155.639 8.02734 155.436 7.90234C155.232 7.77344 154.992 7.70898 154.715 7.70898C154.391 7.70898 154.123 7.80273 153.912 7.99023C153.705 8.17383 153.551 8.43164 153.449 8.76367C153.352 9.0918 153.303 9.47461 153.303 9.91211V10.0352C153.303 10.6211 153.414 11.0879 153.637 11.4355C153.863 11.7832 154.221 11.957 154.709 11.957ZM157.211 7.77344L156.59 6.66016H158.172V7.56836L157.211 7.77344ZM160.322 15.5605C160.201 15.5605 160.061 15.5488 159.9 15.5254C159.744 15.502 159.607 15.4727 159.49 15.4375L159.654 14.3301C159.725 14.3418 159.809 14.3516 159.906 14.3594C160.008 14.3672 160.088 14.3711 160.146 14.3711C160.393 14.3711 160.6 14.293 160.768 14.1367C160.936 13.9844 161.072 13.7715 161.178 13.498L161.371 12.9883L159.203 7.67383L158.465 7.56836V6.66016H161.535V7.56836L160.756 7.68555L161.857 10.6387L162.051 11.1895H162.086L163.387 7.67969L162.607 7.56836V6.66016H165.52V7.56836L164.834 7.66797L162.379 13.9551C162.262 14.252 162.115 14.5215 161.939 14.7637C161.768 15.0098 161.549 15.2031 161.283 15.3438C161.021 15.4883 160.701 15.5605 160.322 15.5605Z" fill="#353535"/>
<path d="M57.0449 35V33.4961L58.5977 33.2031V22.5879L57.0449 22.2949V20.7812H62.6016V22.2949L61.0586 22.5879V33.2031L62.6016 33.4961V35H57.0449ZM67.2793 35V33.4961L68.832 33.2031V22.666H65.9707L65.7559 24.4824H63.9102V20.7812H76.2246V24.4824H74.3691L74.1543 22.666H71.293V33.2031L72.8457 33.4961V35H67.2793ZM89.1055 35.2051C87.7057 35.2051 86.5078 34.9089 85.5117 34.3164C84.5221 33.7174 83.7637 32.8841 83.2363 31.8164C82.7155 30.7422 82.4551 29.4954 82.4551 28.0762V27.7148C82.4551 26.3281 82.7155 25.1009 83.2363 24.0332C83.7572 22.959 84.5026 22.1159 85.4727 21.5039C86.4427 20.8854 87.6016 20.5762 88.9492 20.5762C89.8932 20.5762 90.7689 20.7161 91.5762 20.9961C92.3835 21.276 93.0866 21.6699 93.6855 22.1777V25.459H91.8105L91.5566 23.2617C91.3418 23.1055 91.1042 22.972 90.8438 22.8613C90.5833 22.7507 90.2969 22.666 89.9844 22.6074C89.6784 22.5488 89.3431 22.5195 88.9785 22.5195C88.1257 22.5195 87.3932 22.7344 86.7812 23.1641C86.1758 23.5938 85.7135 24.196 85.3945 24.9707C85.0755 25.7454 84.916 26.6536 84.916 27.6953V28.0762C84.916 29.1569 85.0853 30.0879 85.4238 30.8691C85.7624 31.6439 86.2474 32.2396 86.8789 32.6562C87.5169 33.0729 88.2786 33.2812 89.1641 33.2812C89.5938 33.2812 90.0169 33.2324 90.4336 33.1348C90.8568 33.0306 91.2279 32.8971 91.5469 32.7344L91.8105 30.7422H93.666V34.0039C93.1191 34.362 92.4486 34.6517 91.6543 34.873C90.8665 35.0944 90.0169 35.2051 89.1055 35.2051ZM100.219 35.2051C99.2227 35.2051 98.3535 34.9837 97.6113 34.541C96.8757 34.0918 96.3027 33.4733 95.8926 32.6855C95.4889 31.8978 95.2871 30.9961 95.2871 29.9805V29.5703C95.2871 28.5417 95.4857 27.627 95.8828 26.8262C96.2865 26.0189 96.8398 25.3874 97.543 24.9316C98.2461 24.4694 99.0469 24.2383 99.9453 24.2383C100.902 24.2383 101.703 24.4303 102.348 24.8145C102.999 25.1986 103.49 25.7454 103.822 26.4551C104.154 27.1582 104.32 28.0046 104.32 28.9941V30.4004H97.8359L97.8164 30.4492C97.8424 31.0026 97.9564 31.4941 98.1582 31.9238C98.3665 32.3535 98.6595 32.6921 99.0371 32.9395C99.4212 33.1868 99.8867 33.3105 100.434 33.3105C101.007 33.3105 101.527 33.2324 101.996 33.0762C102.465 32.9199 102.898 32.6986 103.295 32.4121L104.066 33.9551C103.65 34.3066 103.119 34.6029 102.475 34.8438C101.83 35.0846 101.078 35.2051 100.219 35.2051ZM97.875 28.6719H101.967V28.418C101.967 27.9557 101.895 27.5521 101.752 27.207C101.615 26.8555 101.397 26.582 101.098 26.3867C100.805 26.1914 100.43 26.0938 99.9746 26.0938C99.5775 26.0938 99.2292 26.2044 98.9297 26.4258C98.6302 26.6471 98.3893 26.9499 98.207 27.334C98.0312 27.7116 97.9108 28.1413 97.8457 28.623L97.875 28.6719ZM105.824 35V33.4961L107.289 33.2031V26.2402L105.746 25.9473V24.4336H109.555L109.682 25.7617L109.701 25.9766C109.981 25.4167 110.323 24.987 110.727 24.6875C111.137 24.388 111.615 24.2383 112.162 24.2383C112.344 24.2383 112.536 24.2546 112.738 24.2871C112.947 24.3197 113.116 24.3555 113.246 24.3945L112.963 26.6699L111.586 26.5918C111.137 26.5658 110.766 26.6536 110.473 26.8555C110.186 27.0573 109.945 27.3372 109.75 27.6953V33.2031L111.215 33.4961V35H105.824ZM118.5 35.1855C117.602 35.1855 116.902 34.9349 116.4 34.4336C115.899 33.9258 115.648 33.1185 115.648 32.0117V26.1914H114.105V24.4336H115.648V21.8652H118.1V24.4336H120.189V26.1914H118.1V32.0117C118.1 32.4609 118.191 32.7897 118.373 32.998C118.562 33.1999 118.816 33.3008 119.135 33.3008C119.317 33.3008 119.519 33.2845 119.74 33.252C119.968 33.2194 120.15 33.1868 120.287 33.1543L120.541 34.8828C120.255 34.9674 119.926 35.0391 119.555 35.0977C119.19 35.1562 118.839 35.1855 118.5 35.1855ZM121.752 35V33.4961L123.217 33.2031V26.2402L121.664 25.9473V24.4336H125.678V33.2031L127.133 33.4961V35H121.752ZM123.119 22.041V19.7656H125.678V22.041H123.119ZM128.021 35V33.4961L129.574 33.2031V26.1914H127.973V24.4336H129.574V23.5352C129.574 22.2656 129.955 21.2858 130.717 20.5957C131.479 19.9056 132.546 19.5605 133.92 19.5605C134.395 19.5605 134.864 19.6126 135.326 19.7168C135.795 19.8145 136.335 19.9577 136.947 20.1465L136.576 22.1094C136.173 21.9727 135.769 21.862 135.365 21.7773C134.968 21.6862 134.561 21.6406 134.145 21.6406C133.415 21.6406 132.882 21.8001 132.543 22.1191C132.204 22.4316 132.035 22.9036 132.035 23.5352V24.4336H138.275V33.2031L139.828 33.4961V35H134.35V33.4961L135.814 33.2031V26.1914H132.035V33.2031L133.5 33.4961V35H128.021ZM145.795 35.2051C144.805 35.2051 143.946 34.9805 143.217 34.5312C142.494 34.0755 141.934 33.4505 141.537 32.6562C141.146 31.8555 140.951 30.9342 140.951 29.8926V29.5508C140.951 28.5286 141.146 27.6172 141.537 26.8164C141.928 26.0156 142.484 25.3874 143.207 24.9316C143.936 24.4694 144.796 24.2383 145.785 24.2383C146.69 24.2383 147.478 24.3848 148.148 24.6777C148.819 24.9642 149.369 25.3223 149.799 25.752L149.809 28.5742H147.934L147.572 26.709C147.39 26.5202 147.159 26.3704 146.879 26.2598C146.599 26.1426 146.293 26.084 145.961 26.084C145.421 26.084 144.958 26.2305 144.574 26.5234C144.197 26.8164 143.907 27.2233 143.705 27.7441C143.51 28.2585 143.412 28.8607 143.412 29.5508V29.8926C143.412 30.6348 143.513 31.2598 143.715 31.7676C143.917 32.2754 144.197 32.6595 144.555 32.9199C144.919 33.1803 145.336 33.3105 145.805 33.3105C146.371 33.3105 146.83 33.1576 147.182 32.8516C147.54 32.5456 147.774 32.1224 147.885 31.582H150.014L150.043 31.6406C149.965 32.3307 149.76 32.946 149.428 33.4863C149.102 34.0202 148.64 34.4401 148.041 34.7461C147.449 35.0521 146.7 35.2051 145.795 35.2051ZM154.984 35.2051C153.91 35.2051 153.074 34.9284 152.475 34.375C151.876 33.8216 151.576 33.0599 151.576 32.0898C151.576 31.4258 151.758 30.8431 152.123 30.3418C152.488 29.8405 153.021 29.4499 153.725 29.1699C154.428 28.8835 155.281 28.7402 156.283 28.7402H157.895V27.8516C157.895 27.2917 157.725 26.8457 157.387 26.5137C157.055 26.1816 156.57 26.0156 155.932 26.0156C155.567 26.0156 155.245 26.0612 154.965 26.1523C154.685 26.237 154.434 26.3607 154.213 26.5234L153.988 27.9492H152.182L152.162 25.3418C152.683 25.0033 153.262 24.7363 153.9 24.541C154.538 24.3392 155.248 24.2383 156.029 24.2383C157.37 24.2383 158.425 24.554 159.193 25.1855C159.968 25.8105 160.355 26.709 160.355 27.8809V32.5391C160.355 32.6823 160.355 32.8223 160.355 32.959C160.362 33.0957 160.372 33.2292 160.385 33.3594L161.459 33.4961V35H158.246C158.181 34.7721 158.119 34.5508 158.061 34.3359C158.008 34.1211 157.969 33.9062 157.943 33.6914C157.592 34.1341 157.165 34.4987 156.664 34.7852C156.169 35.0651 155.609 35.2051 154.984 35.2051ZM155.541 33.3008C156.036 33.3008 156.498 33.1868 156.928 32.959C157.357 32.7246 157.68 32.4316 157.895 32.0801V30.3125H156.254C155.518 30.3125 154.962 30.485 154.584 30.8301C154.213 31.1686 154.027 31.5658 154.027 32.0215C154.027 32.4316 154.158 32.7474 154.418 32.9688C154.678 33.1901 155.053 33.3008 155.541 33.3008ZM166.449 35.1855C165.551 35.1855 164.851 34.9349 164.35 34.4336C163.848 33.9258 163.598 33.1185 163.598 32.0117V26.1914H162.055V24.4336H163.598V21.8652H166.049V24.4336H168.139V26.1914H166.049V32.0117C166.049 32.4609 166.14 32.7897 166.322 32.998C166.511 33.1999 166.765 33.3008 167.084 33.3008C167.266 33.3008 167.468 33.2845 167.689 33.252C167.917 33.2194 168.1 33.1868 168.236 33.1543L168.49 34.8828C168.204 34.9674 167.875 35.0391 167.504 35.0977C167.139 35.1562 166.788 35.1855 166.449 35.1855ZM169.701 35V33.4961L171.166 33.2031V26.2402L169.613 25.9473V24.4336H173.627V33.2031L175.082 33.4961V35H169.701ZM171.068 22.041V19.7656H173.627V22.041H171.068ZM181.127 35.2051C180.111 35.2051 179.239 34.9772 178.51 34.5215C177.781 34.0658 177.221 33.4342 176.83 32.627C176.439 31.8132 176.244 30.8789 176.244 29.8242V29.6191C176.244 28.571 176.439 27.6432 176.83 26.8359C177.221 26.0286 177.781 25.3939 178.51 24.9316C179.239 24.4694 180.105 24.2383 181.107 24.2383C182.123 24.2383 182.995 24.4694 183.725 24.9316C184.454 25.3874 185.014 26.0189 185.404 26.8262C185.795 27.6335 185.99 28.5645 185.99 29.6191V29.8242C185.99 30.8789 185.795 31.8132 185.404 32.627C185.014 33.4342 184.454 34.0658 183.725 34.5215C183.002 34.9772 182.136 35.2051 181.127 35.2051ZM181.127 33.3105C181.674 33.3105 182.123 33.1641 182.475 32.8711C182.833 32.5716 183.1 32.1615 183.275 31.6406C183.451 31.1133 183.539 30.5078 183.539 29.8242V29.6191C183.539 28.9421 183.451 28.3431 183.275 27.8223C183.1 27.3014 182.833 26.8913 182.475 26.5918C182.117 26.2923 181.661 26.1426 181.107 26.1426C180.567 26.1426 180.118 26.2923 179.76 26.5918C179.402 26.8913 179.135 27.3014 178.959 27.8223C178.79 28.3431 178.705 28.9421 178.705 29.6191V29.8242C178.705 30.5078 178.79 31.1133 178.959 31.6406C179.135 32.1615 179.402 32.5716 179.76 32.8711C180.124 33.1641 180.58 33.3105 181.127 33.3105ZM187.289 35V33.4961L188.754 33.2031V26.2402L187.211 25.9473V24.4336H191.02L191.146 25.9668C191.498 25.4199 191.934 24.9967 192.455 24.6973C192.982 24.3913 193.578 24.2383 194.242 24.2383C195.329 24.2383 196.176 24.5736 196.781 25.2441C197.387 25.9082 197.689 26.9499 197.689 28.3691V33.2031L199.154 33.4961V35H193.852V33.4961L195.229 33.2031V28.3887C195.229 27.5879 195.069 27.0215 194.75 26.6895C194.431 26.3509 193.956 26.1816 193.324 26.1816C192.849 26.1816 192.432 26.2891 192.074 26.5039C191.723 26.7122 191.436 27.0052 191.215 27.3828V33.2031L192.553 33.4961V35H187.289Z" fill="#A51535"/>
</svg>
