<svg width="402" height="266" viewBox="0 0 402 266" fill="none" xmlns="http://www.w3.org/2000/svg">
<g clip-path="url(#clip0)">
<path d="M169.183 98.5911L162.122 94.1798L166.461 83.1693C166.878 82.1115 167.591 81.1958 168.514 80.5314C169.437 79.867 170.532 79.482 171.668 79.4223C172.803 79.3625 173.931 79.6302 174.918 80.1933C175.906 80.7564 176.71 81.5913 177.236 82.5985C177.762 83.6057 177.988 84.7428 177.886 85.8745C177.784 87.0061 177.358 88.0846 176.66 88.9815L169.183 98.5911Z" fill="#FEB8B8"/>
<path d="M132.039 217.889L122.317 213.675L127.592 202.822L135.444 207.415L132.039 217.889Z" fill="#FEB8B8"/>
<path d="M128.265 235.238L117.082 223.838C116.015 222.757 115.419 221.299 115.424 219.78C115.429 218.261 116.035 216.806 117.109 215.733L122.739 210.105C122.942 209.901 123.19 209.747 123.463 209.656C123.737 209.565 124.028 209.54 124.313 209.583C124.598 209.625 124.869 209.734 125.104 209.901C125.339 210.068 125.531 210.287 125.666 210.542C127.052 213.235 128.939 214.687 131.384 214.761C132.85 214.805 133.081 214.75 133.463 216.165L132.992 226.829L134.926 229.029C135.652 229.854 136.054 230.914 136.06 232.012C136.066 233.11 135.674 234.174 134.958 235.006C134.547 235.483 134.043 235.869 133.475 236.141C132.908 236.413 132.291 236.565 131.662 236.587C131.033 236.609 130.407 236.5 129.822 236.268C129.237 236.036 128.707 235.685 128.265 235.238Z" fill="#2F2E41"/>
<path d="M136.084 209.316L125.934 204.464L134.319 151.528L93.3281 154.943C80.3679 156.022 69.6703 144.437 72.2972 131.706C73.062 127.852 75.1811 124.4 78.2713 121.973L118.872 126.825L145.179 130.441C147.819 130.804 150.284 131.967 152.243 133.773C154.201 135.58 155.558 137.943 156.131 140.544C156.587 142.617 156.53 144.77 155.964 146.816L136.084 209.316Z" fill="#2F2E41"/>
<path d="M65.695 265.999C101.036 265.999 129.686 237.362 129.686 202.036C129.686 166.71 101.036 138.072 65.695 138.072C30.3538 138.072 1.7041 166.71 1.7041 202.036C1.7041 237.362 30.3538 265.999 65.695 265.999Z" fill="#E6E6E6"/>
<path d="M162.564 91.5344L172.714 96.3868L156.566 122.905C155.858 124.066 154.824 124.993 153.591 125.57C152.359 126.146 150.984 126.346 149.639 126.144C148.354 125.951 147.15 125.401 146.164 124.555C145.179 123.71 144.451 122.604 144.066 121.364L126.027 86.8764C125.413 85.7033 125.06 84.4117 124.99 83.0897C124.921 81.7677 125.137 80.4462 125.624 79.2152C126.111 77.9842 126.858 76.8726 127.814 75.9559C128.769 75.0392 129.911 74.339 131.162 73.903H131.162C132.321 73.4988 133.549 73.3301 134.774 73.4066C135.999 73.4831 137.197 73.8034 138.296 74.3487C139.396 74.8939 140.376 75.6532 141.178 76.5819C141.98 77.5106 142.589 78.59 142.968 79.757L151.531 106.092L162.564 91.5344Z" fill="#00529C"/>
<path d="M118.173 78.6003C121.487 79.0593 124.89 77.9674 127.656 76.0853C130.421 74.2032 132.607 71.5798 134.457 68.7935C137.583 64.0802 139.837 58.8443 141.112 53.3349C142.166 54.6011 143.546 55.5562 145.102 56.0975C146.658 56.6388 148.333 56.7457 149.946 56.4069C155.208 55.2261 158.363 49.0894 157.337 43.7973C156.311 38.5053 151.967 34.3097 147.011 32.1858C142.054 30.0618 136.53 29.711 131.137 29.7229C127.581 29.7309 123.957 29.8966 120.617 31.1157C117.276 32.3348 114.216 34.7646 113.03 38.1153C112.286 40.216 112.31 42.5412 111.464 44.603C109.928 48.3461 105.945 50.3902 102.207 51.9411C98.4688 53.492 94.405 55.067 92.2005 58.4599C89.7111 62.2913 90.4296 67.6386 93.1729 71.2927C95.9161 74.9468 100.322 77.0655 104.806 77.9515C109.289 78.8375 113.909 78.6185 118.474 78.3957" fill="#2F2E41"/>
<path d="M116.593 217.889L106.871 213.675L112.146 202.822L119.998 207.415L116.593 217.889Z" fill="#FEB8B8"/>
<path d="M112.819 235.238L101.637 223.838C100.57 222.757 99.9736 221.299 99.9785 219.78C99.9835 218.261 100.589 216.806 101.664 215.733L107.293 210.105C107.496 209.901 107.745 209.747 108.018 209.656C108.292 209.565 108.583 209.54 108.868 209.583C109.153 209.625 109.424 209.734 109.659 209.901C109.894 210.068 110.086 210.287 110.22 210.542C111.606 213.235 113.494 214.687 115.939 214.761C117.405 214.805 117.636 214.75 118.017 216.165L117.547 226.829L119.481 229.029C120.206 229.854 120.609 230.914 120.615 232.012C120.621 233.11 120.229 234.174 119.512 235.006C119.102 235.483 118.597 235.869 118.03 236.141C117.463 236.413 116.845 236.565 116.217 236.587C115.588 236.609 114.961 236.5 114.377 236.268C113.792 236.036 113.262 235.685 112.819 235.238Z" fill="#2F2E41"/>
<path d="M119.314 211.962L109.164 207.11L117.549 154.175L76.5585 157.589C63.5984 158.669 52.9008 147.084 55.5276 134.352C56.2924 130.499 58.4116 127.046 61.5018 124.619L102.103 129.472L128.41 133.087C131.05 133.45 133.515 134.613 135.473 136.42C137.431 138.226 138.788 140.59 139.361 143.191C139.818 145.264 139.76 147.417 139.195 149.462L119.314 211.962Z" fill="#2F2E41"/>
<path d="M134.098 67.2707C142.995 67.2707 150.206 60.0619 150.206 51.1695C150.206 42.2771 142.995 35.0684 134.098 35.0684C125.202 35.0684 117.99 42.2771 117.99 51.1695C117.99 60.0619 125.202 67.2707 134.098 67.2707Z" fill="#FEB8B8"/>
<path d="M122.845 88.8873L116.226 70.8011C120.926 65.8155 121.961 59.6975 120.197 52.7148L139.174 63.3019L122.845 88.8873Z" fill="#FEB8B8"/>
<path d="M109.605 131.677C97.8226 135.608 82.2301 134.322 62.6934 127.635C62.1654 127.452 61.6901 127.143 61.3087 126.735C60.9273 126.327 60.6514 125.832 60.5049 125.293C60.3584 124.754 60.3457 124.187 60.468 123.642C60.5903 123.097 60.8438 122.59 61.2066 122.165C74.3836 106.684 86.2059 91.5204 95.9621 76.8433C99.644 72.085 104.882 68.7713 110.76 67.4816L119.755 65.5078L133.436 72.5659L137.021 74.5915C137.867 75.0693 138.606 75.7141 139.195 76.4866C139.783 77.2592 140.208 78.1434 140.443 79.0854C140.679 80.0273 140.72 81.0073 140.564 81.9657C140.408 82.924 140.059 83.8407 139.538 84.6598C134.044 98.0759 126.884 110.324 114.459 118.884L109.605 131.677Z" fill="#00529C"/>
<path d="M134.472 48.0379C136.451 51.186 139.393 53.6129 142.861 54.9587C145.317 55.9042 148.434 56.1391 150.278 54.2613C151.613 52.9011 151.879 50.8077 151.69 48.9113C151.098 42.9922 146.648 37.8377 141.126 35.6199C135.603 33.4021 129.229 33.8869 123.718 36.1323C118.518 38.2508 113.58 42.5909 113.3 48.1965C113.157 51.0692 114.197 54.2325 112.655 56.6604C111.493 58.489 109.249 59.232 107.238 60.0418C105.228 60.8516 103.071 62.1294 102.658 64.256C102.378 65.7016 103.026 67.2105 104.042 68.2759C105.111 69.296 106.376 70.0887 107.76 70.6059C111.038 72.0012 114.647 72.871 118.169 72.3316C121.691 71.7922 125.096 69.6484 126.474 66.3643C127.536 63.8353 127.318 60.9814 127.196 58.2416C127.073 55.5018 127.11 52.5839 128.574 50.2641C130.037 47.9443 133.435 46.6455 135.622 48.3015" fill="#2F2E41"/>
<path opacity="0.2" d="M95.2627 94.4004C95.2627 94.4004 108.061 126.162 111.15 127.926C114.239 129.691 114.239 125.283 114.239 125.283L95.2627 94.4004Z" fill="black"/>
<path d="M207.814 87.9878L136.224 100.58C135.873 100.642 135.515 100.539 135.23 100.296C134.944 100.053 134.754 99.6883 134.701 99.2825L132.058 78.7748C132.006 78.3689 132.096 77.9551 132.307 77.6244C132.519 77.2937 132.835 77.073 133.186 77.0107L204.776 64.4182C205.127 64.3568 205.485 64.459 205.77 64.7023C206.056 64.9456 206.246 65.3101 206.299 65.716L208.942 86.2236C208.994 86.6296 208.904 87.0433 208.693 87.374C208.481 87.7047 208.165 87.9255 207.814 87.9878Z" fill="#a51525"/>
<path d="M139.174 106.091L132.113 101.68L136.453 90.6693C136.87 89.6115 137.582 88.6958 138.505 88.0314C139.428 87.367 140.523 86.982 141.659 86.9223C142.794 86.8625 143.922 87.1302 144.91 87.6933C145.897 88.2564 146.701 89.0913 147.228 90.0985C147.754 91.1057 147.979 92.2428 147.877 93.3745C147.775 94.5061 147.35 95.5846 146.652 96.4815L139.174 106.091Z" fill="#FEB8B8"/>
<path d="M132.113 99.0324L142.263 103.885L126.115 130.403C125.407 131.564 124.373 132.491 123.14 133.068C121.908 133.644 120.533 133.844 119.187 133.642C117.903 133.449 116.699 132.899 115.713 132.053C114.727 131.208 114 130.102 113.614 128.862L95.5758 94.3745C94.9622 93.2013 94.6086 91.9098 94.5391 90.5878C94.4696 89.2657 94.6858 87.9443 95.173 86.7133C95.6602 85.4823 96.4069 84.3706 97.3625 83.4539C98.318 82.5373 99.4599 81.8371 100.71 81.401H100.71C101.869 80.9969 103.098 80.8281 104.323 80.9047C105.548 80.9812 106.745 81.3015 107.845 81.8467C108.945 82.392 109.925 83.1512 110.727 84.0799C111.529 85.0086 112.138 86.0881 112.517 87.255L121.08 113.59L132.113 99.0324Z" fill="#00529C"/>
<path d="M385.874 194.561C380.027 202.823 378.482 249.847 378.138 264.92C378.129 265.26 378.12 265.582 378.116 265.886H363.314C363.133 265.564 362.966 265.247 362.807 264.92C354.033 247.611 358.901 226.856 359.157 225.806C358.491 229.105 361.505 238.669 364.912 247.933C366.99 219.449 384.762 195.999 385.874 194.561Z" fill="#E6E6E6"/>
<path d="M402 264.92L401.823 265.886H0V264.92H402Z" fill="#3F3D56"/>
<path d="M364 77.9673C358.264 77.9673 352.657 76.2672 347.888 73.082C343.119 69.8968 339.402 65.3696 337.207 60.0728C335.013 54.776 334.438 48.9476 335.557 43.3246C336.676 37.7015 339.438 32.5364 343.494 28.4825C347.55 24.4285 352.717 21.6677 358.342 20.5492C363.968 19.4307 369.799 20.0047 375.098 22.1987C380.397 24.3927 384.926 28.1082 388.113 32.8751C391.299 37.6421 393 43.2466 393 48.9798C392.991 56.6651 389.933 64.0331 384.497 69.4675C379.06 74.9018 371.689 77.9587 364 77.9673ZM364 21.3726C358.537 21.3726 353.198 22.9917 348.656 26.0252C344.114 29.0587 340.574 33.3704 338.483 38.4149C336.393 43.4595 335.846 49.0104 336.912 54.3657C337.977 59.7209 340.608 64.6401 344.47 68.501C348.333 72.3619 353.254 74.9913 358.612 76.0565C363.969 77.1217 369.523 76.575 374.569 74.4855C379.616 72.396 383.93 68.8575 386.964 64.3175C389.999 59.7775 391.619 54.44 391.619 48.9798C391.611 41.6604 388.698 34.6433 383.52 29.4677C378.343 24.2922 371.322 21.3809 364 21.3726Z" fill="#00529C"/>
<path d="M375.443 46.1214H366.861V37.5431C366.861 36.7847 366.56 36.0574 366.024 35.5211C365.487 34.9849 364.759 34.6836 364.001 34.6836C363.242 34.6836 362.514 34.9849 361.978 35.5211C361.441 36.0574 361.14 36.7847 361.14 37.5431V46.1214H352.558C351.799 46.1214 351.072 46.4227 350.535 46.9589C349.999 47.4952 349.697 48.2225 349.697 48.9808C349.697 49.7392 349.999 50.4665 350.535 51.0028C351.072 51.539 351.799 51.8403 352.558 51.8403H361.14V60.4186C361.14 61.177 361.441 61.9043 361.978 62.4406C362.514 62.9768 363.242 63.2781 364.001 63.2781C364.759 63.2781 365.487 62.9768 366.023 62.4406C366.56 61.9043 366.861 61.177 366.861 60.4186V51.8403H375.443C376.202 51.8403 376.93 51.539 377.466 51.0028C378.003 50.4665 378.304 49.7392 378.304 48.9809C378.304 48.2225 378.003 47.4952 377.466 46.9589C376.93 46.4227 376.202 46.1214 375.443 46.1214V46.1214Z" fill="#00529C"/>
<path d="M160.192 82.9974L156.383 83.8422L155.538 80.0347C155.464 79.6981 155.258 79.4049 154.967 79.2197C154.677 79.0345 154.324 78.9724 153.987 79.0471C153.65 79.1218 153.357 79.3271 153.172 79.618C152.987 79.9088 152.924 80.2613 152.999 80.5979L153.843 84.4054L150.034 85.2501C149.698 85.3248 149.404 85.5302 149.219 85.821C149.034 86.1118 148.971 86.4643 149.046 86.8009C149.121 87.1375 149.326 87.4306 149.617 87.6158C149.908 87.801 150.26 87.8631 150.597 87.7885L154.406 86.9437L155.251 90.7512C155.325 91.0878 155.531 91.3809 155.822 91.5661C156.113 91.7513 156.465 91.8134 156.802 91.7387C157.139 91.6641 157.432 91.4587 157.617 91.1679C157.803 90.8771 157.865 90.5246 157.79 90.188L156.946 86.3805L160.755 85.5357C161.092 85.4611 161.385 85.2557 161.57 84.9649C161.756 84.6741 161.818 84.3216 161.743 83.985C161.668 83.6484 161.463 83.3552 161.172 83.17C160.881 82.9848 160.529 82.9227 160.192 82.9974L160.192 82.9974Z" fill="white"/>
<path d="M307.529 132.913C291.222 132.899 277.991 146.102 277.977 162.402C277.963 178.703 291.171 191.928 307.479 191.942C323.786 191.956 337.017 178.753 337.031 162.452C337.045 146.152 323.836 132.927 307.529 132.913Z" fill="#528DE0"/>
<path opacity="0.2" d="M307.522 140.887C312.508 140.891 317.339 142.623 321.19 145.788C325.042 148.953 327.676 153.356 328.645 158.245C329.613 163.134 328.856 168.207 326.502 172.601C324.148 176.994 320.342 180.436 315.734 182.339C311.126 184.242 306 184.49 301.23 183.039C296.46 181.588 292.34 178.529 289.574 174.383C286.807 170.236 285.564 165.259 286.057 160.3C286.55 155.34 288.748 150.705 292.277 147.183C294.275 145.178 296.652 143.59 299.269 142.509C301.885 141.428 304.691 140.877 307.522 140.887ZM307.487 182.644C318.637 182.653 327.717 173.593 327.726 162.447C327.736 151.301 318.672 142.225 307.521 142.215C296.37 142.206 287.29 151.266 287.281 162.412C287.271 173.558 296.336 182.634 307.487 182.644Z" fill="black"/>
<path d="M307.521 141.55C295.985 141.54 286.626 150.879 286.616 162.41C286.606 173.941 295.95 183.297 307.486 183.306C319.021 183.316 328.381 173.977 328.391 162.446C328.401 150.915 319.057 141.559 307.521 141.55Z" fill="#00529C"/>
<path d="M323.03 170.788C323.188 171.098 323.283 171.436 323.311 171.783C323.338 172.131 323.296 172.48 323.188 172.811C323.081 173.142 322.909 173.449 322.682 173.713C322.456 173.978 322.179 174.195 321.869 174.353C321.558 174.511 321.22 174.606 320.872 174.632C320.525 174.659 320.176 174.617 319.845 174.509C319.513 174.401 319.207 174.229 318.942 174.002C318.678 173.776 318.461 173.499 318.303 173.189L312.412 161.6C312.254 161.29 312.158 160.952 312.131 160.605C312.104 160.257 312.145 159.908 312.253 159.577C312.361 159.246 312.533 158.94 312.76 158.675C312.986 158.41 313.262 158.193 313.573 158.035C313.884 157.877 314.222 157.782 314.569 157.756C314.917 157.729 315.266 157.771 315.597 157.879C315.928 157.987 316.235 158.159 316.499 158.386C316.764 158.612 316.981 158.889 317.138 159.199L323.03 170.788Z" fill="#FF6584"/>
<path opacity="0.2" d="M322.373 169.496L322.645 170.031C321.284 171.085 319.688 171.86 317.918 172.432L317.646 171.897C319.561 171.5 321.191 170.764 322.373 169.496Z" fill="black"/>
<path opacity="0.2" d="M321.104 167L321.376 167.535C320.016 168.589 318.419 169.364 316.65 169.935L316.378 169.401C318.293 169.004 319.922 168.268 321.104 167Z" fill="black"/>
<path opacity="0.2" d="M319.836 164.504L320.108 165.039C318.747 166.093 317.15 166.868 315.381 167.439L315.109 166.905C317.024 166.508 318.654 165.771 319.836 164.504Z" fill="black"/>
<path opacity="0.2" d="M318.566 162.01L318.838 162.544C317.478 163.599 315.881 164.374 314.112 164.945L313.84 164.41C315.755 164.013 317.384 163.277 318.566 162.01Z" fill="black"/>
<path opacity="0.2" d="M317.297 159.511L317.568 160.046C316.208 161.101 314.611 161.876 312.842 162.447L312.57 161.912C314.485 161.515 316.114 160.779 317.297 159.511Z" fill="black"/>
<path d="M327.461 166.458C327.619 166.768 327.714 167.106 327.741 167.454C327.768 167.801 327.727 168.15 327.619 168.481C327.511 168.812 327.339 169.118 327.113 169.383C326.886 169.648 326.61 169.865 326.299 170.023C325.989 170.18 325.65 170.275 325.303 170.302C324.956 170.329 324.607 170.287 324.275 170.179C323.944 170.071 323.638 169.899 323.373 169.672C323.109 169.446 322.892 169.169 322.734 168.859L316.843 157.27C316.525 156.644 316.469 155.917 316.687 155.25C316.906 154.582 317.38 154.028 318.006 153.71C318.633 153.392 319.36 153.336 320.028 153.553C320.696 153.77 321.25 154.244 321.569 154.87L327.461 166.458Z" fill="#FF6584"/>
<path opacity="0.2" d="M326.805 165.164L327.077 165.699C325.717 166.753 324.12 167.528 322.351 168.1L322.079 167.565C323.994 167.168 325.623 166.432 326.805 165.164Z" fill="black"/>
<path opacity="0.2" d="M325.535 162.666L325.807 163.201C324.447 164.255 322.85 165.03 321.08 165.601L320.808 165.067C322.723 164.67 324.353 163.934 325.535 162.666Z" fill="black"/>
<path opacity="0.2" d="M324.264 160.172L324.536 160.706C323.176 161.761 321.579 162.536 319.81 163.107L319.538 162.572C321.453 162.176 323.082 161.439 324.264 160.172Z" fill="black"/>
<path opacity="0.2" d="M322.998 157.676L323.27 158.21C321.909 159.265 320.313 160.04 318.543 160.611L318.271 160.076C320.186 159.679 321.816 158.943 322.998 157.676Z" fill="black"/>
<path opacity="0.2" d="M321.729 155.181L322.001 155.716C320.641 156.771 319.044 157.546 317.275 158.117L317.003 157.582C318.918 157.185 320.547 156.449 321.729 155.181Z" fill="black"/>
<path d="M293.547 161.753L293.529 161.753C292.893 161.747 292.27 161.932 291.742 162.286C291.214 162.639 290.804 163.143 290.566 163.732C290.078 164.963 289.831 166.277 289.84 167.601C289.868 173.206 294.426 177.808 300.033 177.89C302.421 177.926 304.748 177.135 306.619 175.652C308.49 174.168 309.79 172.084 310.299 169.751C310.808 167.419 310.495 164.983 309.412 162.855C308.33 160.727 306.544 159.039 304.359 158.077C303.781 157.821 303.139 157.745 302.518 157.86C301.897 157.975 301.324 158.274 300.876 158.72C299.915 159.684 298.773 160.448 297.515 160.968C296.257 161.489 294.909 161.756 293.547 161.753Z" fill="#E6E6E6"/>
<path d="M298.862 164.887C296.975 164.885 295.443 166.414 295.441 168.3C295.44 170.187 296.969 171.718 298.856 171.72C300.744 171.721 302.276 170.193 302.277 168.306C302.279 166.419 300.75 164.888 298.862 164.887Z" fill="#F9A825"/>
<path d="M306.287 168.694C306.065 168.694 305.885 168.874 305.884 169.097C305.884 169.319 306.064 169.499 306.287 169.5C306.509 169.5 306.69 169.32 306.69 169.097C306.69 168.875 306.51 168.695 306.287 168.694Z" fill="#3F3D56"/>
<path d="M319.579 168.325C319.356 168.325 319.176 168.505 319.176 168.728C319.175 168.95 319.355 169.13 319.578 169.131C319.8 169.131 319.981 168.951 319.981 168.728C319.981 168.506 319.801 168.325 319.579 168.325Z" fill="#3F3D56"/>
<path d="M304.137 172.86C303.915 172.86 303.734 173.04 303.734 173.263C303.734 173.485 303.914 173.665 304.136 173.666C304.359 173.666 304.539 173.486 304.539 173.263C304.54 173.041 304.359 172.861 304.137 172.86Z" fill="#3F3D56"/>
<path d="M304.16 161.261C303.937 161.261 303.757 161.441 303.757 161.663C303.756 161.885 303.936 162.066 304.159 162.066C304.381 162.066 304.562 161.886 304.562 161.664C304.562 161.441 304.382 161.261 304.16 161.261Z" fill="#3F3D56"/>
<path d="M296.172 173.689C295.95 173.688 295.769 173.868 295.769 174.091C295.769 174.313 295.949 174.494 296.172 174.494C296.394 174.494 296.574 174.314 296.575 174.091C296.575 173.869 296.395 173.689 296.172 173.689Z" fill="#3F3D56"/>
<path d="M322.197 162.702C321.974 162.702 321.794 162.882 321.794 163.104C321.793 163.327 321.974 163.507 322.196 163.507C322.418 163.508 322.599 163.328 322.599 163.105C322.599 162.883 322.419 162.702 322.197 162.702Z" fill="#3F3D56"/>
<path d="M319.258 156.909C319.036 156.909 318.855 157.089 318.855 157.312C318.855 157.534 319.035 157.714 319.258 157.715C319.48 157.715 319.66 157.535 319.66 157.312C319.661 157.09 319.481 156.909 319.258 156.909Z" fill="#3F3D56"/>
<path d="M300.769 155.02C299.93 155.02 299.249 155.699 299.248 156.538C299.248 157.376 299.927 158.057 300.766 158.057C301.605 158.058 302.286 157.379 302.286 156.54C302.287 155.702 301.608 155.021 300.769 155.02Z" fill="#FF6584"/>
<path opacity="0.2" d="M299.629 156.439C299.629 156.137 299.749 155.848 299.963 155.634C300.177 155.421 300.467 155.301 300.769 155.301C301.071 155.301 301.361 155.422 301.574 155.636C301.788 155.849 301.907 156.139 301.907 156.441" fill="black"/>
<path opacity="0.2" d="M301.908 156.634C301.908 156.936 301.788 157.226 301.574 157.439C301.36 157.653 301.07 157.773 300.768 157.772C300.466 157.772 300.176 157.652 299.963 157.438C299.749 157.224 299.629 156.934 299.63 156.632" fill="black"/>
<path d="M301.337 156.916C301.285 156.916 301.242 156.98 301.242 157.059C301.242 157.137 301.284 157.201 301.337 157.201C301.389 157.201 301.432 157.137 301.432 157.059C301.432 156.98 301.389 156.916 301.337 156.916Z" fill="#FF6584"/>
<path d="M300.767 157.108C300.714 157.108 300.672 157.171 300.672 157.25C300.672 157.329 300.714 157.392 300.766 157.392C300.819 157.393 300.861 157.329 300.861 157.25C300.862 157.172 300.819 157.108 300.767 157.108Z" fill="#FF6584"/>
<path d="M300.768 155.873C300.715 155.873 300.673 155.937 300.673 156.016C300.672 156.094 300.715 156.158 300.767 156.158C300.82 156.158 300.862 156.094 300.862 156.016C300.862 155.937 300.82 155.873 300.768 155.873Z" fill="#FF6584"/>
<path d="M300.198 156.633C300.146 156.633 300.103 156.697 300.103 156.775C300.103 156.854 300.146 156.918 300.198 156.918C300.25 156.918 300.293 156.854 300.293 156.776C300.293 156.697 300.251 156.633 300.198 156.633Z" fill="#FF6584"/>
<path d="M300.293 155.59C300.241 155.59 300.198 155.654 300.198 155.732C300.198 155.811 300.24 155.875 300.293 155.875C300.345 155.875 300.388 155.811 300.388 155.733C300.388 155.654 300.345 155.59 300.293 155.59Z" fill="#FF6584"/>
<path d="M301.433 156.063C301.38 156.063 301.338 156.126 301.338 156.205C301.338 156.284 301.38 156.348 301.432 156.348C301.485 156.348 301.527 156.284 301.527 156.205C301.528 156.127 301.485 156.063 301.433 156.063Z" fill="#FF6584"/>
<path d="M297.728 159.095C296.889 159.094 296.208 159.773 296.207 160.612C296.207 161.45 296.886 162.131 297.725 162.132C298.564 162.132 299.245 161.453 299.245 160.614C299.246 159.776 298.567 159.095 297.728 159.095Z" fill="#FF6584"/>
<path opacity="0.2" d="M296.586 160.522C296.586 160.219 296.706 159.93 296.92 159.716C297.134 159.503 297.424 159.383 297.726 159.383C298.028 159.383 298.318 159.504 298.531 159.718C298.745 159.931 298.865 160.221 298.864 160.523" fill="black"/>
<path opacity="0.2" d="M298.865 160.71C298.865 161.012 298.745 161.302 298.531 161.516C298.317 161.729 298.027 161.849 297.725 161.849C297.423 161.848 297.133 161.728 296.92 161.514C296.706 161.3 296.586 161.011 296.587 160.708" fill="black"/>
<path d="M298.295 160.994C298.243 160.994 298.2 161.058 298.2 161.137C298.2 161.215 298.242 161.279 298.295 161.279C298.347 161.279 298.39 161.216 298.39 161.137C298.39 161.058 298.347 160.994 298.295 160.994Z" fill="#FF6584"/>
<path d="M297.726 161.184C297.673 161.184 297.631 161.248 297.631 161.326C297.63 161.405 297.673 161.469 297.725 161.469C297.778 161.469 297.82 161.405 297.82 161.326C297.821 161.248 297.778 161.184 297.726 161.184Z" fill="#FF6584"/>
<path d="M297.728 159.949C297.675 159.949 297.633 160.013 297.633 160.092C297.632 160.17 297.675 160.234 297.727 160.234C297.78 160.234 297.822 160.171 297.822 160.092C297.822 160.013 297.78 159.95 297.728 159.949Z" fill="#FF6584"/>
<path d="M297.156 160.711C297.104 160.711 297.061 160.775 297.061 160.854C297.061 160.932 297.104 160.996 297.156 160.996C297.208 160.996 297.251 160.932 297.251 160.854C297.251 160.775 297.209 160.711 297.156 160.711Z" fill="#FF6584"/>
<path d="M297.252 159.668C297.2 159.668 297.157 159.732 297.157 159.811C297.157 159.889 297.199 159.953 297.252 159.953C297.304 159.953 297.347 159.889 297.347 159.811C297.347 159.732 297.304 159.668 297.252 159.668Z" fill="#FF6584"/>
<path d="M298.39 160.143C298.337 160.143 298.295 160.207 298.295 160.285C298.295 160.364 298.337 160.428 298.389 160.428C298.442 160.428 298.484 160.364 298.484 160.285C298.485 160.207 298.442 160.143 298.39 160.143Z" fill="#FF6584"/>
<path d="M294.692 157.007C293.853 157.006 293.172 157.685 293.171 158.524C293.17 159.363 293.85 160.043 294.689 160.044C295.528 160.044 296.209 159.365 296.209 158.526C296.21 157.688 295.53 157.007 294.692 157.007Z" fill="#528DE0"/>
<path opacity="0.2" d="M293.55 158.434C293.551 158.131 293.671 157.842 293.885 157.628C294.099 157.415 294.389 157.295 294.691 157.295C294.993 157.296 295.283 157.416 295.496 157.63C295.71 157.843 295.829 158.133 295.829 158.436" fill="black"/>
<path opacity="0.2" d="M295.828 158.622C295.828 158.925 295.708 159.214 295.494 159.428C295.28 159.641 294.99 159.761 294.688 159.761C294.386 159.76 294.096 159.64 293.883 159.426C293.669 159.213 293.549 158.923 293.549 158.62" fill="black"/>
<path d="M295.26 158.905C295.207 158.905 295.165 158.968 295.165 159.047C295.165 159.126 295.207 159.189 295.26 159.189C295.312 159.189 295.355 159.126 295.355 159.047C295.355 158.968 295.312 158.905 295.26 158.905Z" fill="#528DE0"/>
<path d="M294.69 159.096C294.638 159.096 294.595 159.16 294.595 159.238C294.595 159.317 294.638 159.381 294.69 159.381C294.743 159.381 294.785 159.317 294.785 159.238C294.785 159.16 294.743 159.096 294.69 159.096Z" fill="#528DE0"/>
<path d="M294.69 157.862C294.638 157.862 294.595 157.925 294.595 158.004C294.595 158.083 294.638 158.146 294.69 158.146C294.743 158.146 294.785 158.083 294.785 158.004C294.785 157.925 294.743 157.862 294.69 157.862Z" fill="#528DE0"/>
<path d="M294.119 158.619C294.067 158.619 294.024 158.683 294.024 158.762C294.024 158.84 294.066 158.904 294.119 158.904C294.171 158.904 294.214 158.841 294.214 158.762C294.214 158.683 294.172 158.619 294.119 158.619Z" fill="#528DE0"/>
<path d="M294.215 157.576C294.162 157.576 294.12 157.64 294.12 157.719C294.12 157.797 294.162 157.861 294.215 157.861C294.267 157.861 294.31 157.798 294.31 157.719C294.31 157.64 294.267 157.576 294.215 157.576Z" fill="#528DE0"/>
<path d="M295.355 158.051C295.303 158.051 295.26 158.115 295.26 158.193C295.26 158.272 295.303 158.336 295.355 158.336C295.408 158.336 295.45 158.272 295.45 158.194C295.45 158.115 295.408 158.051 295.355 158.051Z" fill="#528DE0"/>
<path d="M302.286 156.827C301.447 156.826 300.767 157.506 300.766 158.344C300.765 159.183 301.445 159.863 302.284 159.864C303.123 159.865 303.803 159.185 303.804 158.347C303.805 157.508 303.125 156.828 302.286 156.827Z" fill="#528DE0"/>
<path opacity="0.2" d="M301.144 158.246C301.144 157.944 301.265 157.654 301.479 157.441C301.692 157.227 301.982 157.108 302.285 157.108C302.587 157.108 302.876 157.228 303.09 157.442C303.303 157.656 303.423 157.946 303.423 158.248" fill="black"/>
<path opacity="0.2" d="M303.424 158.437C303.424 158.739 303.303 159.029 303.089 159.242C302.876 159.456 302.586 159.575 302.284 159.575C301.981 159.575 301.692 159.455 301.478 159.241C301.265 159.027 301.145 158.737 301.145 158.435" fill="black"/>
<path d="M302.855 158.723C302.803 158.723 302.76 158.787 302.76 158.865C302.76 158.944 302.803 159.008 302.855 159.008C302.908 159.008 302.95 158.944 302.95 158.865C302.95 158.787 302.908 158.723 302.855 158.723Z" fill="#528DE0"/>
<path d="M302.284 158.908C302.232 158.908 302.189 158.972 302.189 159.051C302.189 159.129 302.232 159.193 302.284 159.193C302.336 159.193 302.379 159.13 302.379 159.051C302.379 158.972 302.337 158.908 302.284 158.908Z" fill="#528DE0"/>
<path d="M302.286 157.68C302.234 157.68 302.191 157.744 302.191 157.822C302.191 157.901 302.233 157.965 302.286 157.965C302.338 157.965 302.381 157.901 302.381 157.822C302.381 157.744 302.339 157.68 302.286 157.68Z" fill="#528DE0"/>
<path d="M301.716 158.436C301.663 158.436 301.621 158.499 301.621 158.578C301.621 158.657 301.663 158.721 301.716 158.721C301.768 158.721 301.811 158.657 301.811 158.578C301.811 158.5 301.768 158.436 301.716 158.436Z" fill="#528DE0"/>
<path d="M301.813 157.391C301.76 157.391 301.718 157.455 301.717 157.533C301.717 157.612 301.76 157.676 301.812 157.676C301.865 157.676 301.907 157.612 301.907 157.533C301.907 157.455 301.865 157.391 301.813 157.391Z" fill="#528DE0"/>
<path d="M302.949 157.867C302.897 157.867 302.854 157.931 302.854 158.01C302.854 158.088 302.897 158.152 302.949 158.152C303.001 158.152 303.044 158.089 303.044 158.01C303.044 157.931 303.002 157.867 302.949 157.867Z" fill="#528DE0"/>
<path d="M298.867 156.153C298.028 156.153 297.348 156.832 297.347 157.67C297.346 158.509 298.026 159.189 298.865 159.19C299.704 159.191 300.384 158.512 300.385 157.673C300.386 156.834 299.706 156.154 298.867 156.153Z" fill="#528DE0"/>
<path opacity="0.2" d="M297.729 157.58C297.729 157.43 297.759 157.282 297.816 157.144C297.874 157.006 297.958 156.88 298.064 156.775C298.169 156.669 298.295 156.585 298.433 156.528C298.572 156.471 298.72 156.442 298.869 156.442C299.019 156.442 299.167 156.471 299.305 156.529C299.444 156.586 299.569 156.67 299.675 156.776C299.781 156.882 299.864 157.008 299.921 157.146C299.979 157.284 300.008 157.432 300.008 157.582" fill="black"/>
<path opacity="0.2" d="M300.007 157.771C300.007 157.92 299.977 158.069 299.92 158.207C299.862 158.345 299.778 158.47 299.672 158.576C299.567 158.682 299.441 158.766 299.303 158.823C299.164 158.88 299.016 158.909 298.867 158.909C298.717 158.909 298.569 158.879 298.431 158.822C298.292 158.765 298.167 158.681 298.061 158.575C297.956 158.469 297.872 158.343 297.815 158.205C297.757 158.067 297.728 157.919 297.728 157.769" fill="black"/>
<path d="M299.438 158.053C299.385 158.053 299.343 158.117 299.342 158.195C299.342 158.274 299.385 158.338 299.437 158.338C299.49 158.338 299.532 158.274 299.532 158.195C299.532 158.117 299.49 158.053 299.438 158.053Z" fill="#528DE0"/>
<path d="M298.867 158.244C298.815 158.244 298.772 158.308 298.772 158.387C298.772 158.465 298.815 158.529 298.867 158.529C298.919 158.529 298.962 158.466 298.962 158.387C298.962 158.308 298.92 158.244 298.867 158.244Z" fill="#528DE0"/>
<path d="M298.869 157.008C298.817 157.008 298.774 157.072 298.774 157.15C298.774 157.229 298.816 157.293 298.869 157.293C298.921 157.293 298.964 157.229 298.964 157.151C298.964 157.072 298.922 157.008 298.869 157.008Z" fill="#528DE0"/>
<path d="M298.299 157.77C298.246 157.77 298.204 157.833 298.204 157.912C298.204 157.991 298.246 158.055 298.299 158.055C298.351 158.055 298.394 157.991 298.394 157.912C298.394 157.834 298.351 157.77 298.299 157.77Z" fill="#528DE0"/>
<path d="M298.394 156.727C298.341 156.727 298.299 156.79 298.299 156.869C298.298 156.948 298.341 157.012 298.393 157.012C298.446 157.012 298.488 156.948 298.488 156.869C298.488 156.791 298.446 156.727 298.394 156.727Z" fill="#528DE0"/>
<path d="M299.532 157.201C299.48 157.201 299.437 157.265 299.437 157.344C299.437 157.422 299.48 157.486 299.532 157.486C299.584 157.486 299.627 157.423 299.627 157.344C299.627 157.265 299.585 157.201 299.532 157.201Z" fill="#528DE0"/>
<path d="M296.497 154.542C295.658 154.541 294.978 155.22 294.977 156.059C294.976 156.898 295.656 157.578 296.495 157.579C297.334 157.58 298.014 156.9 298.015 156.062C298.016 155.223 297.336 154.543 296.497 154.542Z" fill="#FF6584"/>
<path opacity="0.2" d="M295.356 155.965C295.356 155.663 295.477 155.373 295.691 155.16C295.904 154.946 296.194 154.826 296.496 154.827C296.799 154.827 297.088 154.947 297.302 155.161C297.515 155.375 297.635 155.665 297.635 155.967" fill="black"/>
<path opacity="0.2" d="M297.634 156.154C297.634 156.456 297.513 156.746 297.299 156.959C297.086 157.172 296.796 157.292 296.494 157.292C296.191 157.292 295.902 157.171 295.688 156.958C295.475 156.744 295.355 156.454 295.355 156.152" fill="black"/>
<path d="M297.063 156.438C297.01 156.438 296.968 156.501 296.967 156.58C296.967 156.659 297.01 156.723 297.062 156.723C297.115 156.723 297.157 156.659 297.157 156.58C297.157 156.502 297.115 156.438 297.063 156.438Z" fill="#FF6584"/>
<path d="M296.496 156.627C296.444 156.627 296.401 156.691 296.401 156.77C296.401 156.848 296.443 156.912 296.496 156.912C296.548 156.912 296.591 156.848 296.591 156.77C296.591 156.691 296.549 156.627 296.496 156.627Z" fill="#FF6584"/>
<path d="M296.496 155.393C296.444 155.393 296.401 155.457 296.401 155.535C296.401 155.614 296.443 155.678 296.496 155.678C296.548 155.678 296.591 155.614 296.591 155.535C296.591 155.457 296.549 155.393 296.496 155.393Z" fill="#FF6584"/>
<path d="M295.926 156.155C295.873 156.155 295.831 156.218 295.831 156.297C295.831 156.376 295.873 156.439 295.926 156.439C295.978 156.439 296.021 156.376 296.021 156.297C296.021 156.218 295.978 156.155 295.926 156.155Z" fill="#FF6584"/>
<path d="M296.022 155.11C295.97 155.11 295.927 155.173 295.927 155.252C295.927 155.331 295.97 155.394 296.022 155.394C296.075 155.394 296.117 155.331 296.117 155.252C296.117 155.173 296.075 155.11 296.022 155.11Z" fill="#FF6584"/>
<path d="M297.161 155.588C297.109 155.588 297.066 155.652 297.066 155.73C297.066 155.809 297.108 155.873 297.161 155.873C297.213 155.873 297.256 155.809 297.256 155.731C297.256 155.652 297.214 155.588 297.161 155.588Z" fill="#FF6584"/>
<path d="M316.027 161.462C315.804 161.462 315.624 161.642 315.624 161.864C315.624 162.087 315.804 162.267 316.026 162.267C316.248 162.267 316.429 162.087 316.429 161.865C316.429 161.643 316.249 161.462 316.027 161.462Z" fill="#3F3D56"/>
<path d="M305.093 147.248L314.761 149.937L314.389 151.312L304.721 148.623L305.093 147.248Z" fill="#F9A825"/>
<path d="M306.511 147.706C309.823 147.075 313.224 147.078 316.535 147.714L316.534 149.141C313.216 148.588 309.829 148.585 306.509 149.132L306.511 147.706Z" fill="#F9A825"/>
<path d="M305.476 151.985C308.789 151.354 312.19 151.357 315.501 151.994L315.5 153.42C312.182 152.867 308.795 152.864 305.475 153.411L305.476 151.985Z" fill="#F9A825"/>
<path d="M302.013 150.27C305.325 149.639 308.726 149.642 312.037 150.279L312.036 151.705C308.718 151.152 305.331 151.149 302.011 151.697L302.013 150.27Z" fill="#F9A825"/>
<path d="M301.17 148.651C304.482 148.02 307.884 148.023 311.195 148.66L311.193 150.086C307.875 149.533 304.488 149.53 301.169 150.077L301.17 148.651Z" fill="#F9A825"/>
<path d="M298.232 146.538L308.124 144.886L308.352 146.293L298.46 147.945L298.232 146.538Z" fill="#F9A825"/>
<path d="M299.71 146.358C302.453 144.385 305.545 142.947 308.822 142.119L309.408 143.415C306.159 144.322 303.081 145.754 300.295 147.654L299.71 146.358Z" fill="#F9A825"/>
<path d="M300.53 150.683C303.274 148.709 306.365 147.271 309.643 146.444L310.228 147.74C306.98 148.646 303.901 150.078 301.116 151.979L300.53 150.683Z" fill="#F9A825"/>
<path d="M296.676 150.593C299.42 148.619 302.512 147.181 305.789 146.354L306.375 147.65C303.126 148.556 300.048 149.988 297.262 151.889L296.676 150.593Z" fill="#F9A825"/>
<path d="M295.246 149.478C297.989 147.504 301.081 146.066 304.358 145.239L304.944 146.535C301.695 147.441 298.617 148.873 295.831 150.774L295.246 149.478Z" fill="#F9A825"/>
<path d="M307.229 152.271L307.704 152.271L307.705 151.797L307.23 151.796L307.229 152.271Z" fill="#00BF71"/>
<path d="M305.81 144.015L306.285 144.016L306.286 143.541L305.811 143.541L305.81 144.015Z" fill="#00BF71"/>
<path d="M313.397 152.277L313.872 152.277L313.872 151.803L313.398 151.802L313.397 152.277Z" fill="#00BF71"/>
<path d="M302.391 146.384L302.865 146.385L302.866 145.91L302.391 145.91L302.391 146.384Z" fill="#00BF71"/>
<path d="M302.103 149.138L302.578 149.139L302.579 148.664L302.104 148.664L302.103 149.138Z" fill="#00BF71"/>
<path d="M309.933 150.443L310.482 150.816L310.696 150.502L310.146 150.129L309.933 150.443Z" fill="#00BF71"/>
<path d="M304.333 149.394L304.883 149.768L305.096 149.454L304.547 149.08L304.333 149.394Z" fill="#00BF71"/>
<path d="M311.169 147.595L311.719 147.969L311.932 147.655L311.383 147.281L311.169 147.595Z" fill="#00BF71"/>
<path d="M307.687 147.62L307.313 148.17L307.628 148.383L308.001 147.834L307.687 147.62Z" fill="#00BF71"/>
<path d="M305.125 146.952L304.751 147.502L305.065 147.715L305.439 147.166L305.125 146.952Z" fill="#00BF71"/>
<path d="M298.286 149.228L297.912 149.777L298.226 149.991L298.6 149.441L298.286 149.228Z" fill="#00BF71"/>
<path d="M322.146 94.6458C321.211 93.7562 319.621 93.2926 318.098 93.0526C318.142 92.9388 313.463 92.2241 313.387 92.388L311.611 91.2691L306.245 93.6523L303.182 92.0086L301.778 92.4409C301.832 92.2364 297.407 92.936 297.407 92.936C296.56 92.9745 295.479 93.0351 294.269 93.1308C290.031 93.4656 289.848 102.466 289.848 102.466C291.789 101.781 293.865 101.391 295.972 101.315L297.291 112.058C303.182 111.549 309.374 111.933 315.802 113.009L318.673 104.503L325.639 102.162C325.639 102.162 324.356 96.7486 322.146 94.6458Z" fill="#00529C"/>
<path d="M249.959 130.994C249.959 130.994 248.01 134.849 249.669 134.849C251.327 134.849 272.226 134.932 272.806 133.854C273.213 133.099 272.989 130.411 272.818 128.869C272.785 128.57 272.638 128.294 272.408 128.1C272.178 127.905 271.882 127.805 271.581 127.822C267.061 128.071 250.176 128.996 250.249 128.88C250.394 128.652 250.291 128.714 250.291 128.714C250.291 128.714 249.627 130.828 249.959 130.994Z" fill="#00529C"/>
<path opacity="0.1" d="M272.86 128.869C272.826 128.57 272.68 128.294 272.45 128.1C272.219 127.905 271.923 127.805 271.622 127.822C267.103 128.071 250.218 128.996 250.291 128.88C250.436 128.652 250.332 128.714 250.332 128.714C250.332 128.714 250.184 129.186 250.063 129.702C250.08 129.7 250.093 129.716 250.037 129.815C250.032 129.837 250.027 129.859 250.022 129.881C250.699 129.948 266.916 129.06 271.332 128.817C271.633 128.8 271.929 128.899 272.159 129.094C272.389 129.289 272.536 129.565 272.569 129.864C272.696 131.01 272.853 132.79 272.758 133.938C272.794 133.918 272.825 133.889 272.848 133.854C273.255 133.099 273.03 130.411 272.86 128.869Z" fill="black"/>
<path d="M252.282 125.218C252.066 125.152 251.793 125.066 251.817 124.927C251.83 124.853 251.93 124.795 252.001 124.733C252.14 124.613 252.177 124.445 252.028 124.329C251.88 124.213 251.522 124.198 251.39 124.32C251.323 124.383 251.327 124.462 251.292 124.533C251.183 124.755 250.744 124.852 250.37 124.938C249.996 125.024 249.578 125.185 249.613 125.414C249.652 125.664 250.228 125.886 249.996 126.099C249.912 126.177 249.735 126.22 249.698 126.308C249.671 126.371 249.724 126.434 249.776 126.491L250.143 126.895C250.289 127.056 250.439 127.231 250.391 127.41C250.294 127.765 249.506 127.9 248.881 127.861C248.652 127.846 248.384 127.826 248.226 127.922C248.105 127.996 248.105 128.111 248.146 128.21C248.249 128.464 248.581 128.684 249.005 128.78C248.53 128.874 248.343 129.269 248.671 129.487C248.483 129.552 248.28 129.558 248.089 129.504C247.927 129.653 248.022 129.858 248.228 129.989C248.434 130.12 248.726 130.193 249.008 130.263L248.744 130.51C248.935 130.659 249.348 130.607 249.627 130.512C249.905 130.418 250.208 130.291 250.52 130.341C250.812 130.387 251.034 130.582 251.332 130.549C251.563 130.523 251.673 130.375 251.745 130.246L252.051 129.702C252.486 129.77 252.944 129.472 252.769 129.234C253.257 129.286 253.736 128.97 253.576 128.702C253.836 128.902 254.019 129.134 254.108 129.378C254.148 129.487 254.172 129.602 254.281 129.694C254.352 129.747 254.435 129.783 254.522 129.799C254.609 129.815 254.699 129.81 254.784 129.785C254.695 129.958 254.623 130.158 254.806 130.305C254.988 130.451 255.515 130.409 255.492 130.23C255.77 130.35 256.083 130.462 256.431 130.471C256.779 130.48 257.159 130.348 257.191 130.149C257.682 130.311 258.195 130.394 258.711 130.394C258.755 130.261 259.062 130.218 259.291 130.251C259.521 130.283 259.733 130.361 259.97 130.361C260.206 130.362 260.46 130.219 260.339 130.103C260.837 130.207 261.348 130.233 261.853 130.18C262.33 130.129 262.782 130.009 263.265 129.983C263.755 129.953 264.245 130.031 264.702 130.21C264.86 130.276 265.057 130.36 265.231 130.308C265.33 130.278 265.378 130.214 265.445 130.164C265.733 129.945 266.323 129.987 266.778 130.073C267.233 130.159 267.762 130.262 268.161 130.11C268.311 130.053 268.422 129.964 268.582 129.916C269.155 129.744 269.842 130.186 270.45 130.058C270.648 130.017 270.809 129.918 271.019 129.906C271.391 129.884 271.637 130.136 271.999 130.191C272.375 130.247 272.782 130.018 272.69 129.803C273.051 129.811 273.411 129.761 273.756 129.655L273.586 129.348C274.011 129.341 274.323 129.037 274.126 128.821C274.552 128.74 274.889 128.522 274.977 128.27C275.065 128.019 274.899 127.743 274.56 127.575C274.36 127.476 274.097 127.406 273.982 127.27C273.9 127.171 273.912 127.057 273.88 126.949C273.809 126.714 273.505 126.506 273.112 126.425C272.942 126.39 272.755 126.377 272.6 126.322C272.446 126.268 272.334 126.15 272.423 126.06C272.471 126.012 272.561 125.984 272.62 125.941C272.859 125.765 272.45 125.542 272.101 125.443L272.934 125.416L273.113 124.605C272.783 124.873 271.928 124.817 271.714 124.513C271.982 124.601 272.341 124.488 272.472 124.329C272.602 124.169 272.57 123.983 272.535 123.808C272.532 123.764 272.518 123.722 272.493 123.686C272.469 123.65 272.436 123.621 272.396 123.601C272.315 123.562 272.185 123.546 272.158 123.487C272.131 123.427 272.236 123.375 272.252 123.313C272.282 123.196 272.012 123.144 271.829 123.087C271.398 122.953 271.19 122.576 270.7 122.588C270.213 122.6 270.078 122.971 270.077 123.25C270.077 123.528 269.912 123.9 269.426 123.895C269.231 123.893 269.062 123.823 268.907 123.756L267.513 123.155C267.329 123.069 267.137 123.001 266.94 122.95C266.659 122.884 266.349 122.877 266.045 122.87L264.095 122.825C263.996 122.818 263.896 122.826 263.8 122.851C263.697 122.885 263.647 122.952 263.586 123.01C263.314 123.265 262.676 123.365 262.215 123.225C262.093 123.187 261.983 123.136 261.854 123.108C261.446 123.02 261.018 123.183 260.595 123.242C259.9 123.339 259.038 123.172 258.537 123.464C258.37 123.561 258.282 123.694 258.127 123.797C257.972 123.901 257.693 123.971 257.498 123.893C257.523 124.083 257.545 124.282 257.416 124.457C257.287 124.633 256.957 124.777 256.633 124.732C256.461 124.687 256.474 124.542 256.556 124.444C256.637 124.346 256.762 124.246 256.721 124.141C256.681 124.036 256.497 123.974 256.359 123.901C256.221 123.828 256.129 123.689 256.276 123.622C256.177 123.495 255.822 123.51 255.666 123.617C255.511 123.723 255.495 123.873 255.478 124.011C255.461 124.149 255.424 124.301 255.243 124.393C254.935 124.551 254.344 124.469 254.14 124.675C254.075 124.74 254.071 124.819 254.034 124.891C253.868 125.212 253.153 125.296 252.568 125.322C252.556 125.389 252.553 125.457 252.56 125.525C252.76 125.438 252.427 125.262 252.282 125.218Z" fill="#61AB43"/>
<path opacity="0.1" d="M272.536 124.851C272.57 125.026 272.603 125.212 272.472 125.372C272.452 125.395 272.43 125.416 272.406 125.434C272.582 125.428 272.758 125.422 272.934 125.417C272.994 125.146 273.054 124.876 273.113 124.605C272.977 124.717 272.75 124.772 272.516 124.777C272.524 124.801 272.531 124.826 272.536 124.851Z" fill="black"/>
<path opacity="0.1" d="M272.689 125.806C272.668 125.697 272.487 125.585 272.285 125.506C272.107 125.59 271.904 125.608 271.714 125.556C271.862 125.766 272.314 125.857 272.689 125.806Z" fill="black"/>
<path opacity="0.1" d="M272.947 126.396C272.943 126.417 272.938 126.438 272.934 126.459C272.656 126.468 272.378 126.477 272.101 126.486C272.45 126.585 272.858 126.807 272.62 126.983C272.561 127.027 272.47 127.055 272.423 127.103C272.334 127.193 272.445 127.311 272.6 127.365C272.754 127.42 272.941 127.433 273.112 127.468C273.505 127.549 273.809 127.757 273.879 127.993C273.911 128.1 273.899 128.215 273.982 128.313C274.096 128.45 274.359 128.519 274.56 128.619C274.579 128.628 274.597 128.638 274.616 128.649C274.797 128.546 274.927 128.414 274.977 128.271C275.064 128.019 274.899 127.744 274.56 127.576C274.359 127.476 274.096 127.407 273.982 127.27C273.899 127.172 273.911 127.057 273.879 126.95C273.809 126.714 273.505 126.506 273.112 126.425C273.058 126.414 273.003 126.405 272.947 126.396Z" fill="black"/>
<path opacity="0.1" d="M248.536 130.131C248.601 129.993 248.767 129.87 249.005 129.823C248.778 129.776 248.563 129.679 248.377 129.54C248.28 129.543 248.183 129.531 248.089 129.504C247.927 129.653 248.022 129.859 248.228 129.989C248.325 130.048 248.429 130.096 248.536 130.131Z" fill="black"/>
<path opacity="0.1" d="M250.006 126.089C250.125 126.045 250.246 126.009 250.37 125.981C250.744 125.895 251.183 125.797 251.292 125.576C251.327 125.505 251.323 125.426 251.39 125.363C251.522 125.241 251.88 125.256 252.028 125.372C252.177 125.487 252.14 125.656 252.001 125.775C251.93 125.837 251.83 125.895 251.817 125.969C251.793 126.109 252.066 126.194 252.282 126.26C252.384 126.293 252.479 126.343 252.563 126.409C252.565 126.394 252.567 126.379 252.568 126.364C253.153 126.338 253.868 126.255 254.034 125.933C254.071 125.861 254.075 125.783 254.14 125.717C254.344 125.512 254.935 125.594 255.243 125.436C255.424 125.343 255.461 125.192 255.478 125.053C255.495 124.915 255.511 124.765 255.666 124.659C255.822 124.553 256.177 124.537 256.276 124.664C256.129 124.732 256.221 124.871 256.359 124.944C256.497 125.017 256.681 125.078 256.721 125.183C256.762 125.289 256.637 125.389 256.556 125.487C256.474 125.585 256.461 125.729 256.633 125.775C256.957 125.819 257.287 125.676 257.416 125.5C257.545 125.324 257.523 125.126 257.498 124.936C257.693 125.014 257.972 124.944 258.127 124.84C258.282 124.736 258.37 124.604 258.537 124.506C259.038 124.215 259.9 124.381 260.595 124.285C261.018 124.226 261.446 124.062 261.854 124.151C261.983 124.179 262.093 124.23 262.215 124.267C262.676 124.407 263.314 124.308 263.586 124.053C263.647 123.995 263.697 123.928 263.8 123.893C263.896 123.869 263.996 123.86 264.095 123.868C264.745 123.883 265.395 123.897 266.045 123.912C266.349 123.919 266.659 123.927 266.94 123.992C267.137 124.043 267.329 124.112 267.513 124.198C267.977 124.398 268.442 124.598 268.907 124.798C269.062 124.865 269.231 124.935 269.426 124.937C269.912 124.942 270.077 124.57 270.077 124.292C270.078 124.014 270.213 123.643 270.7 123.631C271.19 123.618 271.398 123.995 271.829 124.13C272.012 124.186 272.282 124.238 272.252 124.356C272.238 124.41 272.153 124.458 272.154 124.511C272.275 124.482 272.386 124.419 272.472 124.329C272.602 124.169 272.57 123.983 272.535 123.808C272.532 123.764 272.518 123.722 272.493 123.686C272.469 123.65 272.436 123.621 272.396 123.601C272.315 123.562 272.185 123.546 272.158 123.487C272.131 123.427 272.236 123.375 272.252 123.313C272.282 123.196 272.012 123.144 271.829 123.087C271.398 122.953 271.19 122.576 270.7 122.588C270.213 122.6 270.078 122.971 270.077 123.25C270.077 123.528 269.912 123.9 269.426 123.895C269.231 123.893 269.062 123.823 268.907 123.756C268.442 123.556 267.977 123.355 267.513 123.155C267.329 123.069 267.137 123.001 266.94 122.95C266.659 122.884 266.349 122.877 266.045 122.87C265.395 122.855 264.745 122.84 264.095 122.825C263.996 122.818 263.896 122.826 263.8 122.851C263.697 122.885 263.647 122.952 263.586 123.01C263.314 123.265 262.676 123.365 262.215 123.225C262.093 123.187 261.983 123.136 261.854 123.108C261.446 123.02 261.018 123.183 260.595 123.242C259.9 123.339 259.038 123.172 258.537 123.464C258.37 123.561 258.282 123.694 258.127 123.797C257.972 123.901 257.693 123.971 257.498 123.893C257.523 124.083 257.545 124.282 257.416 124.457C257.287 124.633 256.957 124.777 256.633 124.732C256.461 124.687 256.474 124.542 256.556 124.444C256.637 124.346 256.762 124.246 256.721 124.141C256.681 124.036 256.497 123.974 256.359 123.901C256.221 123.828 256.129 123.689 256.276 123.622C256.177 123.495 255.822 123.51 255.666 123.617C255.511 123.723 255.495 123.873 255.478 124.011C255.461 124.149 255.424 124.301 255.243 124.393C254.935 124.551 254.344 124.469 254.14 124.675C254.075 124.74 254.071 124.819 254.034 124.891C253.868 125.212 253.153 125.296 252.568 125.322C252.567 125.336 252.565 125.351 252.563 125.366C252.479 125.301 252.384 125.25 252.282 125.218C252.066 125.151 251.793 125.066 251.817 124.927C251.83 124.853 251.93 124.795 252.001 124.733C252.14 124.613 252.177 124.445 252.028 124.329C251.88 124.213 251.522 124.198 251.39 124.32C251.323 124.383 251.327 124.462 251.292 124.533C251.183 124.755 250.744 124.852 250.37 124.938C249.996 125.024 249.578 125.185 249.613 125.414C249.651 125.66 250.209 125.879 250.006 126.089Z" fill="black"/>
<path opacity="0.1" d="M249.005 128.779C248.902 128.798 248.804 128.837 248.715 128.893C248.771 128.895 248.827 128.899 248.881 128.902C249.505 128.942 250.293 128.806 250.39 128.451C250.439 128.272 250.288 128.097 250.142 127.936C250.084 127.872 250.025 127.807 249.966 127.742C249.661 127.846 249.243 127.882 248.881 127.859C248.652 127.844 248.383 127.824 248.226 127.921C248.105 127.995 248.105 128.11 248.145 128.209C248.249 128.463 248.58 128.683 249.005 128.779Z" fill="black"/>
<path d="M261.725 127.158C265.16 127.158 267.944 125.321 267.944 123.054C267.944 120.788 265.16 118.951 261.725 118.951C258.29 118.951 255.505 120.788 255.505 123.054C255.505 125.321 258.29 127.158 261.725 127.158Z" fill="#EA565C"/>
<path opacity="0.2" d="M259.61 122.764C259.61 122.764 256.79 123.054 257.619 121.852C258.449 120.65 259.485 120.236 259.983 120.567C260.481 120.899 260.688 121.811 260.605 121.811C260.522 121.811 259.32 121.106 258.905 121.645C258.49 122.184 259.61 122.764 259.61 122.764Z" fill="white"/>
<path opacity="0.2" d="M262.053 122.883C262.053 122.883 264.381 124.499 262.969 124.871C261.556 125.244 260.5 124.883 260.338 124.307C260.177 123.731 260.614 122.904 260.677 122.958C260.74 123.012 261.193 124.33 261.859 124.191C262.524 124.053 262.053 122.883 262.053 122.883Z" fill="white"/>
<path opacity="0.2" d="M262.597 121.869C262.597 121.869 262.78 119.041 263.828 120.059C264.875 121.077 265.111 122.167 264.701 122.602C264.291 123.038 263.357 123.09 263.371 123.008C263.385 122.927 264.28 121.859 263.818 121.36C263.356 120.862 262.597 121.869 262.597 121.869Z" fill="white"/>
<path d="M254.22 126.826C257.655 126.826 260.439 124.989 260.439 122.722C260.439 120.456 257.655 118.619 254.22 118.619C250.785 118.619 248 120.456 248 122.722C248 124.989 250.785 126.826 254.22 126.826Z" fill="#EA565C"/>
<path opacity="0.2" d="M252.105 122.433C252.105 122.433 249.285 122.723 250.115 121.521C250.944 120.318 251.98 119.903 252.478 120.235C252.976 120.567 253.183 121.479 253.1 121.479C253.017 121.479 251.815 120.774 251.4 121.313C250.985 121.852 252.105 122.433 252.105 122.433Z" fill="white"/>
<path opacity="0.2" d="M254.548 122.551C254.548 122.551 256.877 124.167 255.464 124.539C254.051 124.912 252.995 124.551 252.833 123.975C252.672 123.399 253.109 122.572 253.172 122.626C253.235 122.68 253.688 123.998 254.354 123.859C255.019 123.721 254.548 122.551 254.548 122.551Z" fill="white"/>
<path opacity="0.2" d="M255.092 121.538C255.092 121.538 255.276 118.711 256.323 119.729C257.37 120.746 257.606 121.837 257.196 122.272C256.786 122.708 255.852 122.76 255.866 122.678C255.88 122.596 256.776 121.529 256.313 121.03C255.851 120.532 255.092 121.538 255.092 121.538Z" fill="white"/>
<path opacity="0.1" d="M257.456 119.23C258.811 119.983 259.672 121.11 259.672 122.37C259.672 124.636 256.887 126.473 253.452 126.473C252.275 126.473 251.175 126.258 250.236 125.883C251.318 126.484 252.715 126.846 254.24 126.846C257.675 126.846 260.46 125.009 260.46 122.743C260.46 121.254 259.257 119.949 257.456 119.23Z" fill="black"/>
<path opacity="0.1" d="M264.961 119.52C266.316 120.272 267.177 121.399 267.177 122.659C267.177 124.925 264.392 126.763 260.957 126.763C259.78 126.763 258.68 126.547 257.741 126.172C258.823 126.773 260.22 127.136 261.745 127.136C265.18 127.136 267.965 125.298 267.965 123.032C267.965 121.543 266.761 120.238 264.961 119.52Z" fill="black"/>
<path d="M250.44 121.937C250.44 121.937 255.789 116.217 268.891 118.58C279.249 120.447 270.744 123.662 266.725 124.927C265.56 125.293 264.352 125.511 263.131 125.573C258.598 125.807 247.196 126.015 250.44 121.937Z" fill="#714B4F"/>
<path opacity="0.1" d="M266.726 123.642C265.56 124.009 264.353 124.226 263.132 124.289C259.46 124.478 251.279 124.65 250.03 122.541C248.452 125.95 258.852 125.752 263.132 125.532C264.353 125.469 265.56 125.252 266.726 124.885C269.671 123.958 275.027 121.984 273.599 120.26C272.637 121.613 268.977 122.933 266.726 123.642Z" fill="black"/>
<path opacity="0.1" d="M261.863 118.6L263.315 121.459" stroke="black" stroke-width="0.10409" stroke-miterlimit="10"/>
<path opacity="0.1" d="M257.386 119.637L258.63 122.041" stroke="black" stroke-width="0.10409" stroke-miterlimit="10"/>
<path opacity="0.1" d="M264.476 118.6L266.424 121.459" stroke="black" stroke-width="0.10409" stroke-miterlimit="10"/>
<path opacity="0.1" d="M257.386 122.289L270.447 120.631" stroke="black" stroke-width="0.10409" stroke-miterlimit="10"/>
<path opacity="0.1" d="M269.949 119.139L270.861 120.424" stroke="black" stroke-width="0.10409" stroke-miterlimit="10"/>
<path opacity="0.1" d="M254.814 120.631L255.395 121.833" stroke="black" stroke-width="0.10409" stroke-miterlimit="10"/>
<path d="M256.764 116.738C256.764 116.738 268.692 116.684 268.801 116.577C268.911 116.469 271.428 116.412 271.92 117.113C272.412 117.814 272.577 118.138 271.92 118.245C271.263 118.353 249.651 129.411 249.651 129.411C249.651 129.411 248.448 129.519 249.049 128.332C249.651 127.145 256.764 116.738 256.764 116.738Z" fill="#F6C964"/>
<path d="M261.771 121.669C261.771 122.115 259.618 123.203 256.961 123.203C254.305 123.203 252.151 122.115 252.151 121.669C252.151 121.222 254.305 121.047 256.961 121.047C259.618 121.047 261.771 121.222 261.771 121.669Z" fill="#61AB43"/>
<path d="M256.961 122.457C259.618 122.457 261.771 122.095 261.771 121.648C261.771 121.202 259.618 120.84 256.961 120.84C254.305 120.84 252.151 121.202 252.151 121.648C252.151 122.095 254.305 122.457 256.961 122.457Z" fill="#61AB43"/>
<path d="M267.577 120.923C267.577 121.369 265.423 122.457 262.767 122.457C260.111 122.457 257.957 121.369 257.957 120.923C257.957 120.476 260.111 120.301 262.767 120.301C265.423 120.301 267.577 120.476 267.577 120.923Z" fill="#61AB43"/>
<path d="M262.767 121.711C265.423 121.711 267.577 121.349 267.577 120.902C267.577 120.456 265.423 120.094 262.767 120.094C260.111 120.094 257.957 120.456 257.957 120.902C257.957 121.349 260.111 121.711 262.767 121.711Z" fill="#61AB43"/>
<path d="M273.382 120.177C273.382 120.623 271.228 121.711 268.572 121.711C265.915 121.711 263.762 120.623 263.762 120.177C263.762 119.73 265.915 119.555 268.572 119.555C271.228 119.555 273.382 119.73 273.382 120.177Z" fill="#61AB43"/>
<path d="M268.572 120.965C271.228 120.965 273.382 120.603 273.382 120.156C273.382 119.71 271.228 119.348 268.572 119.348C265.915 119.348 263.762 119.71 263.762 120.156C263.762 120.603 265.915 120.965 268.572 120.965Z" fill="#61AB43"/>
<path d="M250.858 120.407C250.858 120.407 248.88 120.085 249.892 118.475C250.904 116.866 251.244 115.062 251.686 114.659C252.18 114.208 262.371 106.307 270.311 115.05C271.152 115.987 271.836 117.054 272.336 118.21C272.432 118.429 272.538 118.625 272.642 118.728C272.964 119.05 273.24 119.97 272.642 120.43C272.043 120.89 254.423 122.683 250.858 120.407Z" fill="#00529C"/>
<path d="M260.128 113.716C260.006 113.801 259.862 113.849 259.714 113.854C259.485 113.854 259.3 113.792 259.3 113.716C259.3 113.64 259.485 113.578 259.714 113.578C259.862 113.583 260.006 113.631 260.128 113.716Z" fill="#F2F2F2"/>
<path d="M256.816 112.843C256.694 112.928 256.551 112.976 256.402 112.981C256.174 112.981 255.988 112.919 255.988 112.843C255.988 112.767 256.174 112.705 256.402 112.705C256.551 112.71 256.694 112.758 256.816 112.843Z" fill="#F2F2F2"/>
<path d="M265.814 114.117C265.672 114.161 265.521 114.164 265.378 114.125C265.159 114.057 265.001 113.942 265.024 113.87C265.046 113.797 265.242 113.793 265.46 113.861C265.6 113.911 265.723 113.999 265.814 114.117Z" fill="#F2F2F2"/>
<path d="M259.695 111.771C259.553 111.816 259.402 111.818 259.258 111.779C259.04 111.711 258.882 111.597 258.905 111.524C258.927 111.451 259.123 111.447 259.341 111.516C259.481 111.565 259.604 111.654 259.695 111.771Z" fill="#F2F2F2"/>
<path d="M266.366 112.599C266.224 112.644 266.073 112.647 265.929 112.607C265.711 112.539 265.553 112.425 265.575 112.352C265.598 112.279 265.794 112.276 266.012 112.344C266.152 112.393 266.275 112.482 266.366 112.599Z" fill="#F2F2F2"/>
<path d="M265.005 112.476C264.883 112.561 264.739 112.609 264.591 112.614C264.362 112.614 264.177 112.552 264.177 112.476C264.177 112.4 264.362 112.338 264.591 112.338C264.739 112.343 264.883 112.391 265.005 112.476Z" fill="#F2F2F2"/>
<path d="M261.048 111.646C260.926 111.731 260.782 111.779 260.634 111.784C260.405 111.784 260.22 111.722 260.22 111.646C260.22 111.57 260.405 111.508 260.634 111.508C260.782 111.513 260.926 111.561 261.048 111.646Z" fill="#F2F2F2"/>
<path d="M264.085 111.646C263.963 111.731 263.819 111.779 263.671 111.784C263.442 111.784 263.257 111.722 263.257 111.646C263.257 111.57 263.442 111.508 263.671 111.508C263.819 111.513 263.963 111.561 264.085 111.646Z" fill="#F2F2F2"/>
<path d="M262.935 113.441C262.813 113.526 262.669 113.573 262.52 113.579C262.292 113.579 262.106 113.517 262.106 113.441C262.106 113.365 262.292 113.303 262.52 113.303C262.669 113.308 262.813 113.356 262.935 113.441Z" fill="#F2F2F2"/>
<path d="M259.589 113.119C259.623 112.974 259.699 112.843 259.806 112.74C259.977 112.588 260.156 112.511 260.207 112.568C260.258 112.624 260.16 112.794 259.99 112.946C259.875 113.041 259.736 113.101 259.589 113.119Z" fill="#F2F2F2"/>
<path d="M257.519 112.613C257.553 112.469 257.628 112.337 257.736 112.234C257.906 112.082 258.086 112.005 258.136 112.062C258.187 112.119 258.09 112.288 257.919 112.44C257.805 112.535 257.666 112.595 257.519 112.613Z" fill="#F2F2F2"/>
<path d="M253.93 115.095C253.964 114.951 254.04 114.82 254.147 114.717C254.317 114.565 254.497 114.487 254.548 114.544C254.598 114.601 254.501 114.77 254.331 114.923C254.216 115.018 254.077 115.077 253.93 115.095Z" fill="#F2F2F2"/>
<path d="M261.89 112.336C261.924 112.191 262 112.06 262.107 111.957C262.277 111.805 262.457 111.727 262.508 111.784C262.558 111.841 262.461 112.011 262.29 112.163C262.176 112.258 262.037 112.318 261.89 112.336Z" fill="#F2F2F2"/>
<path d="M261.062 113.992C261.096 113.847 261.171 113.716 261.279 113.613C261.449 113.461 261.629 113.384 261.679 113.441C261.73 113.497 261.633 113.667 261.462 113.819C261.348 113.914 261.209 113.974 261.062 113.992Z" fill="#F2F2F2"/>
<path d="M169.416 87.2354C168.312 87.4167 167.402 87.2886 166.687 86.8511C165.98 86.4123 165.537 85.6486 165.358 84.56L164.571 79.767C164.557 79.6809 164.573 79.6059 164.619 79.5421C164.672 79.477 164.738 79.438 164.817 79.4251L166.332 79.1763C166.418 79.1622 166.493 79.178 166.557 79.2239C166.629 79.2684 166.671 79.3337 166.686 79.4199L167.471 84.2011C167.554 84.7101 167.735 85.0746 168.012 85.2945C168.296 85.5052 168.665 85.5733 169.119 85.4987C169.566 85.4254 169.889 85.2397 170.089 84.9414C170.29 84.6431 170.349 84.2433 170.266 83.7421L169.482 78.9609C169.467 78.8747 169.483 78.7997 169.529 78.7359C169.583 78.6708 169.649 78.6318 169.727 78.619L171.254 78.3683C171.34 78.3541 171.415 78.37 171.479 78.4158C171.543 78.4616 171.582 78.5276 171.596 78.6137L172.383 83.4067C172.562 84.4953 172.382 85.3612 171.844 86.0044C171.314 86.6464 170.505 87.0567 169.416 87.2354ZM176.837 86.0172C176.202 86.1214 175.655 86.1187 175.195 86.0093C174.742 85.8986 174.394 85.7347 174.149 85.5175C173.904 85.3003 173.766 85.0938 173.733 84.898C173.721 84.8197 173.738 84.7526 173.785 84.6966C173.839 84.6315 173.901 84.5931 173.971 84.5816L175.31 84.3617C175.357 84.354 175.404 84.3665 175.449 84.3992C175.553 84.4464 175.632 84.4858 175.686 84.5172C175.879 84.6142 176.043 84.6838 176.178 84.7259C176.32 84.7588 176.486 84.7599 176.673 84.729C176.901 84.6918 177.078 84.6185 177.204 84.5092C177.338 84.3908 177.391 84.2493 177.364 84.0849C177.342 83.9517 177.286 83.8524 177.194 83.787C177.111 83.7202 176.958 83.669 176.735 83.6332C176.511 83.5896 176.176 83.5601 175.731 83.5446C175.059 83.5182 174.523 83.3851 174.121 83.1454C173.727 82.8965 173.487 82.5176 173.404 82.0085C173.351 81.6874 173.403 81.3653 173.559 81.0421C173.715 80.7189 173.978 80.4344 174.348 80.1887C174.725 79.9418 175.192 79.7726 175.748 79.6813C176.304 79.5901 176.804 79.5965 177.247 79.7006C177.691 79.8048 178.039 79.9648 178.291 80.1807C178.55 80.3875 178.697 80.5927 178.73 80.7963C178.742 80.8668 178.725 80.9339 178.679 80.9978C178.641 81.0603 178.587 81.0974 178.516 81.1089L177.294 81.3095C177.232 81.3198 177.17 81.3099 177.109 81.2797C176.998 81.2416 176.898 81.1976 176.809 81.1478C176.66 81.0679 176.521 81.0101 176.395 80.9746C176.268 80.9391 176.119 80.9354 175.947 80.9637C175.743 80.9972 175.586 81.0712 175.477 81.1857C175.374 81.299 175.336 81.43 175.36 81.5788C175.379 81.6963 175.427 81.789 175.502 81.8571C175.586 81.9238 175.739 81.979 175.964 82.0226C176.195 82.0571 176.528 82.0787 176.964 82.0876C177.745 82.0961 178.336 82.2404 178.736 82.5205C179.143 82.7994 179.385 83.166 179.459 83.6202C179.554 84.1998 179.372 84.7082 178.913 85.1455C178.453 85.5749 177.761 85.8655 176.837 86.0172ZM182.649 85.0631C182.233 85.1312 181.841 85.1153 181.47 85.0152C181.107 84.906 180.804 84.7305 180.564 84.4885C180.329 84.2374 180.185 83.9435 180.129 83.6067C180.041 83.0664 180.189 82.5957 180.573 82.1948C180.966 81.7926 181.539 81.4652 182.294 81.2126L183.726 80.7483L183.699 80.5838C183.65 80.2862 183.551 80.0772 183.403 79.9568C183.254 79.8364 183.031 79.8007 182.734 79.8495C182.554 79.8791 182.41 79.9349 182.303 80.0168C182.195 80.0987 182.088 80.2048 181.981 80.335C181.887 80.447 181.815 80.5232 181.765 80.5635C181.752 80.63 181.714 80.6684 181.651 80.6787L180.371 80.8889C180.293 80.9017 180.222 80.8892 180.16 80.8512C180.104 80.8041 180.074 80.7446 180.07 80.6729C180.043 80.4601 180.106 80.2085 180.26 79.9179C180.421 79.626 180.69 79.3527 181.066 79.0979C181.45 78.8418 181.944 78.6642 182.547 78.5652C183.51 78.4071 184.258 78.5054 184.791 78.8603C185.323 79.2074 185.647 79.7411 185.766 80.4616L186.352 84.0328C186.365 84.1112 186.349 84.1861 186.304 84.2578C186.259 84.3216 186.193 84.3606 186.107 84.3747L184.744 84.5985C184.665 84.6113 184.591 84.5955 184.519 84.5509C184.454 84.4973 184.415 84.4313 184.402 84.353L184.334 83.9418C184.202 84.2129 183.992 84.4525 183.704 84.6605C183.423 84.8595 183.071 84.9937 182.649 85.0631ZM182.981 83.6332C183.341 83.5741 183.612 83.409 183.792 83.1381C183.981 82.8659 184.038 82.5026 183.963 82.0484L183.936 81.8839L182.967 82.2241C182.282 82.4651 181.97 82.7696 182.031 83.1377C182.063 83.3335 182.171 83.4767 182.355 83.5671C182.537 83.6498 182.746 83.6718 182.981 83.6332ZM188.019 84.0607C187.941 84.0735 187.866 84.0577 187.795 84.0132C187.729 83.9595 187.69 83.8935 187.678 83.8152L186.405 76.0619C186.391 75.9758 186.406 75.9008 186.452 75.837C186.506 75.7719 186.572 75.7329 186.65 75.72L188.154 75.4732C188.24 75.459 188.315 75.4749 188.379 75.5207C188.443 75.5665 188.482 75.6325 188.496 75.7187L188.926 78.3383C189.308 77.7286 189.883 77.3608 190.651 77.2348C191.105 77.1602 191.525 77.1958 191.911 77.3416C192.305 77.486 192.636 77.7413 192.905 78.1073C193.174 78.4732 193.355 78.9382 193.448 79.502L193.986 82.7796C193.999 82.8579 193.983 82.9329 193.938 83.0045C193.893 83.0683 193.827 83.1073 193.74 83.1215L192.225 83.3703C192.147 83.3831 192.072 83.3673 192 83.3227C191.935 83.2691 191.896 83.2031 191.883 83.1248L191.357 79.9177C191.296 79.5497 191.16 79.2825 190.948 79.1163C190.742 78.941 190.471 78.8809 190.134 78.9362C189.797 78.9915 189.548 79.137 189.385 79.3728C189.229 79.5994 189.182 79.8968 189.242 80.2649L189.769 83.4719C189.783 83.5581 189.767 83.6331 189.721 83.6969C189.675 83.7607 189.609 83.7997 189.523 83.8138L188.019 84.0607ZM197.218 82.6712C196.803 82.7393 196.41 82.7234 196.04 82.6233C195.676 82.5141 195.374 82.3386 195.133 82.0966C194.899 81.8455 194.754 81.5516 194.699 81.2148C194.61 80.6745 194.758 80.2038 195.143 79.8029C195.535 79.4007 196.109 79.0733 196.863 78.8207L198.295 78.3564L198.268 78.1919C198.219 77.8943 198.121 77.6853 197.972 77.5649C197.824 77.4445 197.601 77.4088 197.303 77.4576C197.123 77.4872 196.979 77.543 196.872 77.6249C196.765 77.7068 196.658 77.8129 196.55 77.9431C196.456 78.0551 196.384 78.1313 196.335 78.1716C196.321 78.2381 196.283 78.2765 196.221 78.2868L194.94 78.497C194.862 78.5099 194.792 78.4973 194.729 78.4593C194.673 78.4122 194.643 78.3527 194.639 78.281C194.613 78.0682 194.676 77.8166 194.829 77.526C194.99 77.2341 195.259 76.9608 195.636 76.706C196.02 76.4499 196.513 76.2723 197.116 76.1733C198.08 76.0152 198.828 76.1135 199.361 76.4684C199.892 76.8155 200.217 77.3492 200.335 78.0697L200.922 81.641C200.934 81.7193 200.919 81.7943 200.874 81.8659C200.828 81.9297 200.762 81.9687 200.676 81.9829L199.313 82.2066C199.235 82.2194 199.16 82.2036 199.088 82.1591C199.023 82.1054 198.984 82.0394 198.971 81.9611L198.904 81.5499C198.771 81.821 198.562 82.0606 198.274 82.2686C197.993 82.4676 197.641 82.6018 197.218 82.6712ZM197.55 81.2413C197.911 81.1822 198.181 81.0172 198.362 80.7462C198.55 80.474 198.607 80.1107 198.533 79.6565L198.506 79.492L197.536 79.8322C196.852 80.0732 196.54 80.3778 196.6 80.7458C196.633 80.9416 196.74 81.0848 196.924 81.1752C197.107 81.2579 197.315 81.2799 197.55 81.2413Z" fill="white"/>
</g>
<defs>
<clipPath id="clip0">
<rect width="402" height="266" fill="white"/>
</clipPath>
</defs>
</svg>
