<svg width="278" height="178" viewBox="0 0 278 178" fill="none" xmlns="http://www.w3.org/2000/svg">
<path d="M277.437 0.636719H0.304688V177.338H277.437V0.636719Z" fill="#E6E6E6"/>
<path d="M269.512 22.7988H8.22852V166.884H269.512V22.7988Z" fill="white"/>
<path d="M277.318 0.480469H0.185547V12.2019H277.318V0.480469Z" fill="#00529C"/>
<path d="M8.93605 8.64572C10.1412 8.64572 11.1182 7.67308 11.1182 6.47325C11.1182 5.27343 10.1412 4.30078 8.93605 4.30078C7.73089 4.30078 6.75391 5.27343 6.75391 6.47325C6.75391 7.67308 7.73089 8.64572 8.93605 8.64572Z" fill="white"/>
<path d="M17.2173 8.64572C18.4225 8.64572 19.3995 7.67308 19.3995 6.47325C19.3995 5.27343 18.4225 4.30078 17.2173 4.30078C16.0121 4.30078 15.0352 5.27343 15.0352 6.47325C15.0352 7.67308 16.0121 8.64572 17.2173 8.64572Z" fill="white"/>
<path d="M25.5005 8.64572C26.7057 8.64572 27.6827 7.67308 27.6827 6.47325C27.6827 5.27343 26.7057 4.30078 25.5005 4.30078C24.2953 4.30078 23.3184 5.27343 23.3184 6.47325C23.3184 7.67308 24.2953 8.64572 25.5005 8.64572Z" fill="white"/>
<path d="M178.326 44.9199H30.459V127.726H178.326V44.9199Z" fill="#00529C"/>
<path d="M96.71 94.5244C98.3084 91.79 101.28 89.9297 104.702 89.9297C108.124 89.9297 111.096 91.7676 112.694 94.5244" stroke="white" stroke-width="3.53064" stroke-miterlimit="10" stroke-linecap="round" stroke-linejoin="round"/>
<path d="M112.672 84.2138C114.338 84.2138 115.689 82.8691 115.689 81.2104C115.689 79.5517 114.338 78.207 112.672 78.207C111.006 78.207 109.655 79.5517 109.655 81.2104C109.655 82.8691 111.006 84.2138 112.672 84.2138Z" fill="white"/>
<path d="M96.7101 84.2138C98.3762 84.2138 99.7269 82.8691 99.7269 81.2104C99.7269 79.5517 98.3762 78.207 96.7101 78.207C95.044 78.207 93.6934 79.5517 93.6934 81.2104C93.6934 82.8691 95.044 84.2138 96.7101 84.2138Z" fill="white"/>
<path d="M255.268 44.9199H198.958V76.4538H255.268V44.9199Z" fill="#DADADA"/>
<path d="M255.268 86.4316H198.958V117.966H255.268V86.4316Z" fill="#DADADA"/>
<path d="M255.268 127.941H198.958V159.475H255.268V127.941Z" fill="#DADADA"/>
<path d="M132.333 141.635H30.459V148.482H132.333V141.635Z" fill="#DADADA"/>
</svg>
